<svg width="120" height="119" viewBox="0 0 120 119" fill="none" xmlns="http://www.w3.org/2000/svg">
<path d="M51.2037 27.4206C48.7595 32.0185 47.0437 36.9678 46.1175 42.0918H72.9261C71.9998 36.9678 70.284 32.0185 67.84 27.4206C65.4581 23.2297 62.6984 20.5316 59.5218 20.5316C56.3453 20.5316 53.5856 23.2297 51.2037 27.4206V27.4206Z" fill="white"/>
<path d="M41.9713 42.0814C42.9659 36.2474 44.886 30.6097 47.6591 25.3814C48.3971 24.0676 49.2461 22.8194 50.1971 21.6504C44.7173 23.0112 39.597 25.5419 35.1878 29.0686C30.7785 32.5953 27.1847 37.0345 24.6533 42.0814H41.9713Z" fill="white"/>
<path d="M44.4645 59.5014C44.4562 63.9672 44.7705 68.4278 45.405 72.8482H73.6386C74.273 68.4278 74.5873 63.9672 74.5791 59.5014C74.5873 55.0356 74.273 50.5751 73.6386 46.1546H45.405C44.7705 50.5751 44.4562 55.0356 44.4645 59.5014V59.5014Z" fill="white"/>
<path d="M68.8465 21.6708C69.7973 22.8398 70.6464 24.088 71.3845 25.4017C74.1575 30.63 76.0776 36.2677 77.0723 42.1017H94.3903C91.8585 37.0551 88.2646 32.616 83.8554 29.0894C79.4462 25.5627 74.3261 23.0319 68.8465 21.6708V21.6708Z" fill="white"/>
<path d="M96.1341 72.8482C99.2635 64.2255 99.2635 54.7773 96.1341 46.1546H77.7217C78.3338 50.5771 78.6378 55.0368 78.6313 59.5014C78.6378 63.9661 78.3338 68.4258 77.7217 72.8482H96.1341Z" fill="white"/>
<path d="M50.1971 97.332C49.2462 96.163 48.3971 94.9148 47.6591 93.6011C44.8861 88.3728 42.9659 82.7351 41.9713 76.9012H24.6533C27.1851 81.9478 30.7789 86.3868 35.1881 89.9134C39.5974 93.4401 44.7175 95.9709 50.1971 97.332V97.332Z" fill="white"/>
<path d="M77.0723 76.9215C76.0776 82.7555 74.1575 88.3932 71.3845 93.6214C70.6464 94.9352 69.7973 96.1833 68.8465 97.3524C74.3263 95.9916 79.4466 93.461 83.8558 89.9343C88.2651 86.4076 91.8588 81.9684 94.3903 76.9215H77.0723Z" fill="white"/>
<path d="M67.84 91.5823C70.284 86.9844 71.9998 82.0351 72.9261 76.911H46.1175C47.0437 82.0351 48.7595 86.9844 51.2037 91.5823C53.5856 95.7732 56.3453 98.4713 59.5218 98.4713C62.6984 98.4713 65.4581 95.7732 67.84 91.5823Z" fill="white"/>
<path d="M41.3219 72.8482C40.109 63.9917 40.109 55.0112 41.3219 46.1546H22.9094C19.78 54.7773 19.78 64.2255 22.9094 72.8482H41.3219Z" fill="white"/>
<path d="M59.5218 16.3809C50.9934 16.3809 42.6565 18.9099 35.5653 23.648C28.4742 28.3862 22.9473 35.1207 19.6837 42.9999C16.42 50.8792 15.566 59.5493 17.2299 67.9138C18.8937 76.2784 23.0005 83.9617 29.031 89.9922C35.0615 96.0227 42.7448 100.13 51.1094 101.793C59.474 103.457 68.144 102.603 76.0233 99.3396C83.9025 96.0759 90.637 90.549 95.3752 83.4579C100.113 76.3668 102.642 68.0299 102.642 59.5014C102.637 48.0668 98.092 37.1021 90.0066 29.0166C81.9211 20.9312 70.9564 16.3864 59.5218 16.3809V16.3809ZM77.7761 46.1546H96.1886C99.318 54.7773 99.318 64.2255 96.1886 72.8483H77.7761C78.3882 68.4258 78.6922 63.9661 78.6858 59.5014C78.6922 55.0368 78.3882 50.5771 77.7761 46.1546V46.1546ZM77.0985 42.0479C76.1039 36.2139 74.1838 30.5762 71.4107 25.3479C70.6727 24.0342 69.8236 22.786 68.8728 21.617C74.3523 22.9782 79.4725 25.5089 83.8817 29.0356C88.2909 32.5623 91.8847 37.0013 94.4165 42.0479H77.0985ZM74.5791 59.5014C74.5873 63.9672 74.273 68.4278 73.6386 72.8483H45.405C44.151 63.9945 44.151 55.0083 45.405 46.1546H73.6386C74.273 50.5751 74.5873 55.0356 74.5791 59.5014V59.5014ZM67.8399 27.3767C70.284 31.9745 71.9998 36.9238 72.9261 42.0479H46.1175C47.0437 36.9238 48.7595 31.9745 51.2036 27.3767C53.5855 23.1857 56.3452 20.4876 59.5218 20.4876C62.6983 20.4876 65.458 23.1857 67.8399 27.3767ZM50.1811 21.6273C49.2302 22.7962 48.3811 24.0444 47.6431 25.3582C44.8675 30.5827 42.9439 36.2168 41.9451 42.0479H24.6271C27.1585 37.001 30.7523 32.5618 35.1615 29.0351C39.5708 25.5084 44.6911 22.9778 50.1708 21.617L50.1811 21.6273ZM22.855 46.1546H41.2675C40.0546 55.0112 40.0546 63.9917 41.2675 72.8483H22.855C19.7256 64.2255 19.7256 54.7773 22.855 46.1546ZM41.9512 76.955C42.9459 82.789 44.866 88.4266 47.639 93.6549C48.377 94.9687 49.2261 96.2169 50.177 97.3859C44.6974 96.0247 39.5773 93.4939 35.1681 89.9673C30.7589 86.4406 27.165 82.0016 24.6332 76.955H41.9512ZM51.2098 91.6262C48.7635 87.0287 47.0457 82.0794 46.1175 76.955H72.9261C71.9998 82.079 70.284 87.0283 67.8399 91.6262C65.458 95.8171 62.6983 98.5152 59.5218 98.5152C56.3452 98.5152 53.5855 95.8171 51.2036 91.6262H51.2098ZM68.8687 97.3859C69.8194 96.2168 70.6685 94.9686 71.4066 93.6549C74.1811 88.4269 76.1026 82.7892 77.0985 76.955H94.4165C91.8851 82.0018 88.2913 86.441 83.8821 89.9677C79.4728 93.4944 74.3525 96.0251 68.8728 97.3859H68.8687Z" fill="white"/>
<path d="M10.3199 38.544C8.68619 38.544 7.11935 37.895 5.96411 36.7397C4.80888 35.5845 4.15987 34.0176 4.15987 32.3839C4.15987 31.8393 3.94354 31.317 3.55846 30.932C3.17338 30.5469 2.6511 30.3305 2.10651 30.3305C1.56193 30.3305 1.03965 30.5469 0.654572 30.932C0.269493 31.317 0.0531577 31.8393 0.0531577 32.3839C0.0546047 34.7502 0.872583 37.0435 2.36897 38.8766C3.86536 40.7097 5.94848 41.9702 8.26659 42.4453V46.2851C8.26659 46.8297 8.48292 47.352 8.868 47.7371C9.25308 48.1221 9.77536 48.3385 10.3199 48.3385C10.8645 48.3385 11.3868 48.1221 11.7719 47.7371C12.157 47.352 12.3733 46.8297 12.3733 46.2851V42.4453C14.8684 41.9387 17.0863 40.523 18.5964 38.4731C20.1064 36.4231 20.8009 33.8853 20.5451 31.3521C20.2892 28.8189 19.1012 26.4712 17.2117 24.7646C15.3222 23.0581 12.866 22.1145 10.3199 22.1171C9.1016 22.1171 7.91061 21.7558 6.89759 21.0789C5.88457 20.4021 5.09502 19.44 4.62878 18.3144C4.16254 17.1888 4.04055 15.9502 4.27824 14.7553C4.51592 13.5603 5.10261 12.4627 5.96411 11.6012C6.82562 10.7397 7.92324 10.153 9.11817 9.91532C10.3131 9.67763 11.5517 9.79962 12.6773 10.2659C13.8029 10.7321 14.765 11.5217 15.4419 12.5347C16.1187 13.5477 16.48 14.7387 16.48 15.957C16.48 16.5016 16.6963 17.0239 17.0814 17.409C17.4665 17.7941 17.9888 18.0104 18.5334 18.0104C19.078 18.0104 19.6002 17.7941 19.9853 17.409C20.3704 17.0239 20.5867 16.5016 20.5867 15.957C20.5853 13.5907 19.7673 11.2974 18.2709 9.46435C16.7745 7.63127 14.6914 6.37073 12.3733 5.89558V2.0599C12.3733 1.51532 12.157 0.99304 11.7719 0.607961C11.3868 0.222881 10.8645 0.00654602 10.3199 0.00654602C9.77536 0.00654602 9.25308 0.222881 8.868 0.607961C8.48292 0.99304 8.26659 1.51532 8.26659 2.0599V5.89558C5.77144 6.40223 3.55356 7.81793 2.0435 9.86785C0.533445 11.9178 -0.161058 14.4557 0.0948182 16.9888C0.350694 19.522 1.53869 21.8697 3.42819 23.5763C5.31769 25.2828 7.77388 26.2264 10.3199 26.2238C11.9537 26.2238 13.5205 26.8728 14.6758 28.0281C15.831 29.1833 16.48 30.7501 16.48 32.3839C16.48 34.0176 15.831 35.5845 14.6758 36.7397C13.5205 37.895 11.9537 38.544 10.3199 38.544Z" fill="white"/>
<path d="M108.724 80.4527C110.357 80.4527 111.924 81.1017 113.079 82.257C114.235 83.4122 114.884 84.979 114.884 86.6128C114.884 87.1574 115.1 87.6796 115.485 88.0647C115.87 88.4498 116.392 88.6661 116.937 88.6661C117.482 88.6661 118.004 88.4498 118.389 88.0647C118.774 87.6796 118.99 87.1574 118.99 86.6128C118.991 84.246 118.174 81.9517 116.677 80.1182C115.18 78.2847 113.096 77.0247 110.777 76.5513V72.7177C110.777 72.1731 110.561 71.6508 110.176 71.2658C109.79 70.8807 109.268 70.6644 108.724 70.6644C108.179 70.6644 107.657 70.8807 107.272 71.2658C106.887 71.6508 106.67 72.1731 106.67 72.7177V76.5534C104.175 77.06 101.957 78.4757 100.447 80.5257C98.9371 82.5756 98.2426 85.1135 98.4985 87.6466C98.7544 90.1798 99.9424 92.5275 101.832 94.2341C103.721 95.9406 106.178 96.8842 108.724 96.8816C109.942 96.8816 111.133 97.2429 112.146 97.9198C113.159 98.5967 113.949 99.5587 114.415 100.684C114.881 101.81 115.003 103.049 114.765 104.243C114.528 105.438 113.941 106.536 113.079 107.398C112.218 108.259 111.12 108.846 109.925 109.083C108.73 109.321 107.492 109.199 106.366 108.733C105.241 108.267 104.279 107.477 103.602 106.464C102.925 105.451 102.564 104.26 102.564 103.042C102.564 102.497 102.347 101.975 101.962 101.59C101.577 101.205 101.055 100.988 100.51 100.988C99.9656 100.988 99.4433 101.205 99.0583 101.59C98.6732 101.975 98.4568 102.497 98.4568 103.042C98.4564 105.409 99.2736 107.703 100.77 109.536C102.267 111.37 104.351 112.63 106.67 113.103V116.943C106.67 117.488 106.887 118.01 107.272 118.395C107.657 118.78 108.179 118.996 108.724 118.996C109.268 118.996 109.79 118.78 110.176 118.395C110.561 118.01 110.777 117.488 110.777 116.943V113.101C113.272 112.594 115.49 111.179 117 109.129C118.51 107.079 119.205 104.541 118.949 102.008C118.693 99.4747 117.505 97.1269 115.615 95.4204C113.726 93.7139 111.27 92.7703 108.724 92.7729C107.09 92.7729 105.523 92.1238 104.368 90.9686C103.213 89.8134 102.564 88.2465 102.564 86.6128C102.564 84.979 103.213 83.4122 104.368 82.257C105.523 81.1017 107.09 80.4527 108.724 80.4527V80.4527Z" fill="white"/>
<path d="M35.7447 9.44543C44.1962 5.44093 53.5233 3.63893 62.8583 4.20701C72.1932 4.7751 81.2329 7.69483 89.1365 12.6946C97.0401 17.6944 103.551 24.6119 108.063 32.8036C112.575 40.9953 114.943 50.1951 114.945 59.5473C114.945 60.0919 115.161 60.6142 115.546 60.9993C115.931 61.3843 116.454 61.6007 116.998 61.6007C117.543 61.6007 118.065 61.3843 118.45 60.9993C118.835 60.6142 119.051 60.0919 119.051 59.5473C119.049 49.5022 116.507 39.6207 111.66 30.8222C106.813 22.0237 99.8198 14.594 91.3304 9.22422C82.8409 3.85443 73.1313 0.719026 63.1047 0.109691C53.078 -0.499644 43.0601 1.43688 33.9829 5.73912C33.7291 5.84812 33.4999 6.00721 33.309 6.20687C33.1181 6.40654 32.9694 6.64267 32.8719 6.90113C32.7744 7.15959 32.7301 7.43506 32.7415 7.71106C32.753 7.98707 32.82 8.25792 32.9386 8.5074C33.0572 8.75689 33.2249 8.97988 33.4317 9.16303C33.6385 9.34618 33.8801 9.48572 34.1421 9.5733C34.4041 9.66088 34.6811 9.6947 34.9564 9.67272C35.2318 9.65075 35.4999 9.57344 35.7447 9.44543V9.44543Z" fill="white"/>
<path d="M83.3068 109.551C74.8552 113.555 65.5282 115.357 56.1932 114.789C46.8582 114.221 37.8185 111.301 29.915 106.302C22.0114 101.302 15.5006 94.3844 10.9884 86.1927C6.47606 78.001 4.10879 68.8012 4.10671 59.4489C4.10671 58.9044 3.89038 58.3821 3.5053 57.997C3.12022 57.6119 2.59794 57.3956 2.05336 57.3956C1.50877 57.3956 0.986493 57.6119 0.601414 57.997C0.216335 58.3821 0 58.9044 0 59.4489C0.00381264 69.4932 2.54777 79.3734 7.39525 88.1705C12.2427 96.9676 19.2363 104.396 27.7254 109.765C36.2146 115.133 45.9236 118.268 55.9494 118.876C65.9752 119.485 75.9921 117.549 85.0685 113.247C85.3184 113.135 85.5435 112.975 85.7305 112.775C85.9175 112.575 86.0627 112.34 86.1575 112.083C86.2522 111.826 86.2947 111.553 86.2824 111.28C86.2701 111.006 86.2033 110.738 86.0858 110.491C85.9684 110.244 85.8027 110.022 85.5985 109.84C85.3943 109.658 85.1557 109.518 84.8968 109.43C84.6379 109.341 84.3638 109.305 84.0908 109.324C83.8177 109.342 83.5511 109.415 83.3068 109.539V109.551Z" fill="white"/>
</svg>
