<svg width="105" height="159" viewBox="0 0 105 159" fill="none" xmlns="http://www.w3.org/2000/svg">
<path d="M0.0300984 27.7584C0.808777 46.8196 16.5015 62.0419 35.7503 62.0556V27.7322H0.0263367L0.0300984 27.7584Z" fill="url(#paint0_linear_11_1479)"/>
<path d="M104.525 131.214V133H68.7733V97.1768H68.7871C87.9606 97.1768 103.612 112.261 104.525 131.214Z" fill="url(#paint1_linear_11_1479)"/>
<path d="M98.8887 46.7241L98.1924 46.3808L98.5382 45.6896L99.2345 46.0328L98.8887 46.7241Z" fill="url(#paint2_linear_11_1479)"/>
<path d="M96.7943 44.4835L96.5464 43.7519L97.2833 43.5059L97.5311 44.2374L96.7943 44.4835Z" fill="url(#paint3_linear_11_1479)"/>
<path d="M103.95 50.9468L103.702 50.2152L104.439 49.9692L104.687 50.7007L103.95 50.9468Z" fill="url(#paint4_linear_11_1479)"/>
<path d="M72.5445 46.1145L73.8489 45.199L74.7711 46.4939L73.4667 47.4094L72.5445 46.1145Z" fill="url(#paint5_linear_11_1479)"/>
<path d="M71.5497 48.1315L72.8596 47.2117L73.7862 48.5121L72.4762 49.4319L71.5497 48.1315Z" fill="url(#paint6_linear_11_1479)"/>
<path d="M76.4385 43.1266L78.018 43.3637L77.7792 44.9318L76.1996 44.6946L76.4385 43.1266Z" fill="url(#paint7_linear_11_1479)"/>
<path d="M70.4025 44.7524L70.7968 43.2156L72.3448 43.6071L71.9505 45.1438L70.4025 44.7524Z" fill="url(#paint8_linear_11_1479)"/>
<path d="M75.8008 45.0944L75.1045 44.7512L75.4503 44.0599L76.1465 44.4032L75.8008 45.0944Z" fill="url(#paint9_linear_11_1479)"/>
<path d="M78.7209 45.9856L78.0247 45.6423L78.3705 44.9511L79.0667 45.2944L78.7209 45.9856Z" fill="url(#paint10_linear_11_1479)"/>
<path d="M76.6964 42.241L76.0002 41.8978L76.3459 41.2066L77.0422 41.5498L76.6964 42.241Z" fill="url(#paint11_linear_11_1479)"/>
<path d="M73.7083 42.8545L73.4604 42.123L74.1973 41.877L74.4451 42.6085L73.7083 42.8545Z" fill="url(#paint12_linear_11_1479)"/>
<path d="M80.0071 40.702L81.3115 39.7865L82.2337 41.0815L80.9293 41.997L80.0071 40.702Z" fill="url(#paint13_linear_11_1479)"/>
<path d="M78.5504 38.9649L78.9447 37.4281L80.4928 37.8196L80.0985 39.3563L78.5504 38.9649Z" fill="url(#paint14_linear_11_1479)"/>
<path d="M83.2638 39.6818L82.5675 39.3386L82.9133 38.6474L83.6096 38.9907L83.2638 39.6818Z" fill="url(#paint15_linear_11_1479)"/>
<path d="M80.1833 36.7916L79.9355 36.0601L80.6723 35.8141L80.9201 36.5455L80.1833 36.7916Z" fill="url(#paint16_linear_11_1479)"/>
<path d="M78.7931 43.8748L78.5453 43.1433L79.2821 42.8972L79.5299 43.6287L78.7931 43.8748Z" fill="url(#paint17_linear_11_1479)"/>
<path d="M75.608 38.5661L76.4067 37.1927L77.7902 37.9856L76.9914 39.359L75.608 38.5661Z" fill="url(#paint18_linear_11_1479)"/>
<path d="M93.2661 44.4786L94.5705 43.5631L95.4927 44.858L94.1883 45.7735L93.2661 44.4786Z" fill="url(#paint19_linear_11_1479)"/>
<path d="M91.8081 42.7428L92.2024 41.206L93.7505 41.5975L93.3562 43.1342L91.8081 42.7428Z" fill="url(#paint20_linear_11_1479)"/>
<path d="M94.4296 41.2195L94.1818 40.488L94.9186 40.242L95.1664 40.9735L94.4296 41.2195Z" fill="url(#paint21_linear_11_1479)"/>
<path d="M89.8364 43.3587L89.0401 41.9839L90.425 41.1934L91.2213 42.5682L89.8364 43.3587Z" fill="url(#paint22_linear_11_1479)"/>
<path d="M93.9651 38.2666L95.2695 37.3511L96.1918 38.646L94.8873 39.5615L93.9651 38.2666Z" fill="url(#paint23_linear_11_1479)"/>
<path d="M97.0297 39.1386L97.8284 37.7652L99.2119 38.5581L98.4132 39.9315L97.0297 39.1386Z" fill="url(#paint24_linear_11_1479)"/>
<path d="M97.9591 34.6288L99.5386 34.866L99.2997 36.434L97.7202 36.1968L97.9591 34.6288Z" fill="url(#paint25_linear_11_1479)"/>
<path d="M92.5079 36.5306L92.9022 34.9938L94.4503 35.3853L94.056 36.922L92.5079 36.5306Z" fill="url(#paint26_linear_11_1479)"/>
<path d="M97.2245 37.2476L96.5283 36.9043L96.8741 36.2131L97.5703 36.5564L97.2245 37.2476Z" fill="url(#paint27_linear_11_1479)"/>
<path d="M97.0034 33.9563L96.3071 33.613L96.6529 32.9218L97.3492 33.2651L97.0034 33.9563Z" fill="url(#paint28_linear_11_1479)"/>
<path d="M95.1294 35.0071L94.8815 34.2756L95.6184 34.0295L95.8662 34.761L95.1294 35.0071Z" fill="url(#paint29_linear_11_1479)"/>
<path d="M97.0295 30.4152L97.8283 29.0418L99.2117 29.8347L98.413 31.2081L97.0295 30.4152Z" fill="url(#paint30_linear_11_1479)"/>
<path d="M96.7842 41.9602L96.088 41.6169L96.4338 40.9257L97.13 41.269L96.7842 41.9602Z" fill="url(#paint31_linear_11_1479)"/>
<path d="M102.157 51.5637L101.46 51.2205L101.806 50.5292L102.502 50.8725L102.157 51.5637Z" fill="url(#paint32_linear_11_1479)"/>
<path d="M88.7635 39.0292L87.459 38.1137L88.3812 36.8188L89.6857 37.7343L88.7635 39.0292Z" fill="url(#paint33_linear_11_1479)"/>
<path d="M89.2432 44.7639L87.7911 45.4251L87.1251 43.9836L88.5771 43.3225L89.2432 44.7639Z" fill="url(#paint34_linear_11_1479)"/>
<path d="M87.1626 47.4761L85.7106 48.1372L85.0445 46.6958L86.4966 46.0346L87.1626 47.4761Z" fill="url(#paint35_linear_11_1479)"/>
<path d="M85.9312 35.6626L84.3517 35.8998L84.1128 34.3317L85.6923 34.0946L85.9312 35.6626Z" fill="url(#paint36_linear_11_1479)"/>
<path d="M89.5906 36.3894L89.1963 34.8527L90.7443 34.4612L91.1386 35.998L89.5906 36.3894Z" fill="url(#paint37_linear_11_1479)"/>
<path d="M86.07 36.0214L86.7663 35.6781L87.1121 36.3693L86.4158 36.7126L86.07 36.0214Z" fill="url(#paint38_linear_11_1479)"/>
<path d="M84.7899 38.4112L85.4862 38.0679L85.832 38.7591L85.1357 39.1024L84.7899 38.4112Z" fill="url(#paint39_linear_11_1479)"/>
<path d="M82.1869 43.8014L82.8831 43.4582L83.2289 44.1494L82.5326 44.4927L82.1869 43.8014Z" fill="url(#paint40_linear_11_1479)"/>
<path d="M87.7777 34.2313L88.0255 33.4998L88.7624 33.7458L88.5145 34.4773L87.7777 34.2313Z" fill="url(#paint41_linear_11_1479)"/>
<path d="M91.7676 46.5692L92.1619 45.0324L93.71 45.4238L93.3157 46.9606L91.7676 46.5692Z" fill="url(#paint42_linear_11_1479)"/>
<path d="M67.6478 38.4315L68.9522 37.516L69.8744 38.8109L68.57 39.7264L67.6478 38.4315Z" fill="url(#paint43_linear_11_1479)"/>
<path d="M70.7105 39.3028L71.5092 37.9294L72.8926 38.7223L72.0939 40.0957L70.7105 39.3028Z" fill="url(#paint44_linear_11_1479)"/>
<path d="M71.64 34.7931L73.2195 35.0302L72.9806 36.5982L71.4011 36.3611L71.64 34.7931Z" fill="url(#paint45_linear_11_1479)"/>
<path d="M75.8602 35.9799L77.4397 36.217L77.2009 37.785L75.6213 37.5479L75.8602 35.9799Z" fill="url(#paint46_linear_11_1479)"/>
<path d="M70.9064 37.4087L70.2101 37.0654L70.5559 36.3742L71.2522 36.7175L70.9064 37.4087Z" fill="url(#paint47_linear_11_1479)"/>
<path d="M73.8263 38.3011L73.13 37.9578L73.4758 37.2666L74.1721 37.6099L73.8263 38.3011Z" fill="url(#paint48_linear_11_1479)"/>
<path d="M71.782 33.955L71.0857 33.6117L71.4315 32.9205L72.1278 33.2638L71.782 33.955Z" fill="url(#paint49_linear_11_1479)"/>
<path d="M68.813 35.17L68.5652 34.4385L69.3021 34.1925L69.5499 34.924L68.813 35.17Z" fill="url(#paint50_linear_11_1479)"/>
<path d="M73.2256 22.1922L74.8051 22.4294L74.5662 23.9974L72.9867 23.7602L73.2256 22.1922Z" fill="url(#paint51_linear_11_1479)"/>
<path d="M72.705 26.8554L72.0087 26.5121L72.3545 25.8209L73.0508 26.1642L72.705 26.8554Z" fill="url(#paint52_linear_11_1479)"/>
<path d="M70.8214 26.3426L70.1251 25.9993L70.4709 25.3081L71.1672 25.6514L70.8214 26.3426Z" fill="url(#paint53_linear_11_1479)"/>
<path d="M74.3793 20.8256L73.683 20.4823L74.0288 19.7911L74.7251 20.1344L74.3793 20.8256Z" fill="url(#paint54_linear_11_1479)"/>
<path d="M82.8786 12.0597L82.1823 11.7164L82.5281 11.0252L83.2244 11.3685L82.8786 12.0597Z" fill="url(#paint55_linear_11_1479)"/>
<path d="M70.3994 20.3252L70.1515 19.5937L70.8884 19.3477L71.1362 20.0791L70.3994 20.3252Z" fill="url(#paint56_linear_11_1479)"/>
<path d="M78.9514 19.7223L80.2558 18.8068L81.178 20.1017L79.8736 21.0172L78.9514 19.7223Z" fill="url(#paint57_linear_11_1479)"/>
<path d="M82.0161 20.5933L82.8148 19.2199L84.1982 20.0129L83.3995 21.3862L82.0161 20.5933Z" fill="url(#paint58_linear_11_1479)"/>
<path d="M82.2133 18.7012L81.517 18.3579L81.8628 17.6667L82.5591 18.01L82.2133 18.7012Z" fill="url(#paint59_linear_11_1479)"/>
<path d="M78.1945 17.8035L77.9467 17.072L78.6835 16.826L78.9314 17.5575L78.1945 17.8035Z" fill="url(#paint60_linear_11_1479)"/>
<path d="M75.1116 33.0178L76.416 32.1023L77.3382 33.3972L76.0338 34.3127L75.1116 33.0178Z" fill="url(#paint61_linear_11_1479)"/>
<path d="M78.1745 33.8891L78.9733 32.5158L80.3567 33.3087L79.558 34.682L78.1745 33.8891Z" fill="url(#paint62_linear_11_1479)"/>
<path d="M81.8438 35.9924L82.6425 34.619L84.0259 35.4119L83.2272 36.7853L81.8438 35.9924Z" fill="url(#paint63_linear_11_1479)"/>
<path d="M79.1023 29.3807L80.6818 29.6178L80.443 31.1859L78.8634 30.9487L79.1023 29.3807Z" fill="url(#paint64_linear_11_1479)"/>
<path d="M73.6541 31.2799L74.0484 29.7431L75.5964 30.1346L75.2021 31.6714L73.6541 31.2799Z" fill="url(#paint65_linear_11_1479)"/>
<path d="M78.3695 31.9962L77.6732 31.6529L78.019 30.9617L78.7153 31.3049L78.3695 31.9962Z" fill="url(#paint66_linear_11_1479)"/>
<path d="M81.2891 32.8885L80.5928 32.5452L80.9386 31.854L81.6349 32.1973L81.2891 32.8885Z" fill="url(#paint67_linear_11_1479)"/>
<path d="M85.7458 34.077L85.4579 33.3601L86.1801 33.0743L86.4679 33.7912L85.7458 34.077Z" fill="url(#paint68_linear_11_1479)"/>
<path d="M76.2756 29.7577L76.0278 29.0262L76.7647 28.7802L77.0125 29.5117L76.2756 29.7577Z" fill="url(#paint69_linear_11_1479)"/>
<path d="M73.4822 15.8584L73.2329 15.1274L73.9693 14.88L74.2185 15.611L73.4822 15.8584Z" fill="url(#paint70_linear_11_1479)"/>
<path d="M73.8967 36.1901L73.6489 35.4586L74.3857 35.2126L74.6335 35.9441L73.8967 36.1901Z" fill="url(#paint71_linear_11_1479)"/>
<path d="M70.7116 30.5794L71.5103 29.206L72.8938 29.9989L72.0951 31.3723L70.7116 30.5794Z" fill="url(#paint72_linear_11_1479)"/>
<path d="M87.0852 29.7634L88.6647 30.0006L88.4258 31.5686L86.8463 31.3314L87.0852 29.7634Z" fill="url(#paint73_linear_11_1479)"/>
<path d="M83.5963 41.9466L83.9906 40.4099L85.5387 40.8013L85.1444 42.3381L83.5963 41.9466Z" fill="url(#paint74_linear_11_1479)"/>
<path d="M77.4601 41.6126L77.8544 40.0758L79.4025 40.4673L79.0082 42.004L77.4601 41.6126Z" fill="url(#paint75_linear_11_1479)"/>
<path d="M80.1483 38.845L80.5427 37.3082L82.0907 37.6997L81.6964 39.2364L80.1483 38.845Z" fill="url(#paint76_linear_11_1479)"/>
<path d="M82.7869 39.385L83.1812 37.8483L84.7292 38.2397L84.3349 39.7765L82.7869 39.385Z" fill="url(#paint77_linear_11_1479)"/>
<path d="M70.4669 42.1231L69.7706 41.7798L70.1164 41.0886L70.8127 41.4318L70.4669 42.1231Z" fill="url(#paint78_linear_11_1479)"/>
<path d="M79.3435 43.4514L80.1422 42.078L81.5257 42.871L80.727 44.2443L79.3435 43.4514Z" fill="url(#paint79_linear_11_1479)"/>
<path d="M82.6504 45.0531L83.7046 46.2446L82.5042 47.2911L81.4501 46.0995L82.6504 45.0531Z" fill="url(#paint80_linear_11_1479)"/>
<path d="M79.8253 44.6895L81.285 45.3337L80.636 46.7828L79.1763 46.1386L79.8253 44.6895Z" fill="url(#paint81_linear_11_1479)"/>
<path d="M78.9732 47.6418L80.4299 46.991L81.0855 48.4371L79.6288 49.088L78.9732 47.6418Z" fill="url(#paint82_linear_11_1479)"/>
<path d="M71.8694 41.3542L73.4489 41.5914L73.21 43.1594L71.6305 42.9222L71.8694 41.3542Z" fill="url(#paint83_linear_11_1479)"/>
<path d="M74.3044 45.1795L73.608 44.8362L73.9538 44.145L74.6502 44.4883L74.3044 45.1795Z" fill="url(#paint84_linear_11_1479)"/>
<path d="M71.5509 47.4155L71.3031 46.6841L72.04 46.438L72.2878 47.1695L71.5509 47.4155Z" fill="url(#paint85_linear_11_1479)"/>
<path d="M68.8476 47.4485L69.4824 47.003L69.9312 47.6331L69.2964 48.0786L68.8476 47.4485Z" fill="url(#paint86_linear_11_1479)"/>
<path d="M76.4196 47.4152L76.1718 46.6837L76.9086 46.4377L77.1565 47.1692L76.4196 47.4152Z" fill="url(#paint87_linear_11_1479)"/>
<path d="M68.0964 42.6677L69.6759 42.9048L69.437 44.4728L67.8575 44.2357L68.0964 42.6677Z" fill="url(#paint88_linear_11_1479)"/>
<path d="M101.387 42.4905L102.692 41.575L103.614 42.8699L102.31 43.7854L101.387 42.4905Z" fill="url(#paint89_linear_11_1479)"/>
<path d="M98.8336 44.8918L100.138 43.9764L101.06 45.2712L99.7558 46.1867L98.8336 44.8918Z" fill="url(#paint90_linear_11_1479)"/>
<path d="M102.773 46.5111L104.077 45.5956L104.999 46.8905L103.695 47.806L102.773 46.5111Z" fill="url(#paint91_linear_11_1479)"/>
<path d="M99.6526 47.957L100.956 47.0406L101.88 48.3349L100.576 49.2512L99.6526 47.957Z" fill="url(#paint92_linear_11_1479)"/>
<path d="M75.7917 40.9947L75.0954 40.6514L75.4412 39.9602L76.1376 40.3035L75.7917 40.9947Z" fill="url(#paint93_linear_11_1479)"/>
<path d="M74.2795 26.709L74.6738 25.1723L76.2218 25.5637L75.8275 27.1005L74.2795 26.709Z" fill="url(#paint94_linear_11_1479)"/>
<path d="M80.8839 26.9565L81.6827 25.5831L83.0662 26.3761L82.2674 27.7494L80.8839 26.9565Z" fill="url(#paint95_linear_11_1479)"/>
<path d="M82.0409 29.0069L83.6204 29.2441L83.3815 30.8121L81.802 30.5749L82.0409 29.0069Z" fill="url(#paint96_linear_11_1479)"/>
<path d="M85.9646 28.6493L85.2684 28.306L85.6141 27.6148L86.3104 27.9581L85.9646 28.6493Z" fill="url(#paint97_linear_11_1479)"/>
<path d="M88.1369 49.8659L87.3751 49.7118L87.5304 48.9556L88.2921 49.1097L88.1369 49.8659Z" fill="url(#paint98_linear_11_1479)"/>
<path d="M87.5466 53.1549L86.84 53.4766L86.5159 52.7751L87.2225 52.4534L87.5466 53.1549Z" fill="url(#paint99_linear_11_1479)"/>
<path d="M86.8417 49.2192L86.1351 49.541L85.811 48.8395L86.5176 48.5177L86.8417 49.2192Z" fill="url(#paint100_linear_11_1479)"/>
<path d="M99.4549 36.8789L100.254 35.5055L101.637 36.2985L100.838 37.6718L99.4549 36.8789Z" fill="url(#paint101_linear_11_1479)"/>
<path d="M92.3362 21.8574L93.6406 20.9419L94.5628 22.2368L93.2584 23.1523L92.3362 21.8574Z" fill="url(#paint102_linear_11_1479)"/>
<path d="M88.9172 13.8956L90.2216 12.9801L91.1438 14.275L89.8394 15.1905L88.9172 13.8956Z" fill="url(#paint103_linear_11_1479)"/>
<path d="M96.3289 18.219L97.9084 18.4561L97.6696 20.0241L96.09 19.787L96.3289 18.219Z" fill="url(#paint104_linear_11_1479)"/>
<path d="M96.1666 10.1843L97.7461 10.4215L97.5072 11.9895L95.9277 11.7524L96.1666 10.1843Z" fill="url(#paint105_linear_11_1479)"/>
<path d="M100.507 18.015L102.086 18.2521L101.847 19.8201L100.268 19.583L100.507 18.015Z" fill="url(#paint106_linear_11_1479)"/>
<path d="M90.8781 20.1206L91.2725 18.5838L92.8205 18.9752L92.4262 20.512L90.8781 20.1206Z" fill="url(#paint107_linear_11_1479)"/>
<path d="M85.1634 19.0066L85.5577 17.4698L87.1058 17.8613L86.7115 19.398L85.1634 19.0066Z" fill="url(#paint108_linear_11_1479)"/>
<path d="M95.5955 20.8377L94.8992 20.4945L95.245 19.8032L95.9413 20.1465L95.5955 20.8377Z" fill="url(#paint109_linear_11_1479)"/>
<path d="M86.7628 15.8629L86.0665 15.5196L86.4123 14.8284L87.1086 15.1717L86.7628 15.8629Z" fill="url(#paint110_linear_11_1479)"/>
<path d="M89.416 1.04092L88.7197 0.697652L89.0655 0.00643983L89.7618 0.349712L89.416 1.04092Z" fill="url(#paint111_linear_11_1479)"/>
<path d="M98.235 42.611L97.5387 42.2677L97.8845 41.5765L98.5808 41.9198L98.235 42.611Z" fill="url(#paint112_linear_11_1479)"/>
<path d="M83.9741 29.3345L85.2785 28.419L86.2007 29.7139L84.8963 30.6294L83.9741 29.3345Z" fill="url(#paint113_linear_11_1479)"/>
<path d="M86.8902 21.1225L87.6889 19.7492L89.0724 20.5421L88.2737 21.9155L86.8902 21.1225Z" fill="url(#paint114_linear_11_1479)"/>
<path d="M79.4428 5.85395L80.2415 4.48058L81.625 5.27349L80.8263 6.64687L79.4428 5.85395Z" fill="url(#paint115_linear_11_1479)"/>
<path d="M99.6379 41.8387L101.217 42.0758L100.979 43.6438L99.399 43.4067L99.6379 41.8387Z" fill="url(#paint116_linear_11_1479)"/>
<path d="M100.808 30.0016L102.388 30.2388L102.149 31.8068L100.569 31.5696L100.808 30.0016Z" fill="url(#paint117_linear_11_1479)"/>
<path d="M76.5104 24.093L76.9047 22.5563L78.4528 22.9477L78.0585 24.4845L76.5104 24.093Z" fill="url(#paint118_linear_11_1479)"/>
<path d="M81.2258 24.8091L80.5295 24.4658L80.8753 23.7746L81.5716 24.1179L81.2258 24.8091Z" fill="url(#paint119_linear_11_1479)"/>
<path d="M84.1462 25.7013L83.4499 25.3581L83.7957 24.6669L84.492 25.0101L84.1462 25.7013Z" fill="url(#paint120_linear_11_1479)"/>
<path d="M103.192 45.7163L102.496 45.373L102.842 44.6818L103.538 45.0251L103.192 45.7163Z" fill="url(#paint121_linear_11_1479)"/>
<path d="M89.0259 47.9592L88.3296 47.6159L88.6754 46.9247L89.3717 47.268L89.0259 47.9592Z" fill="url(#paint122_linear_11_1479)"/>
<path d="M79.1321 22.5697L78.8842 21.8382L79.6211 21.5922L79.8689 22.3237L79.1321 22.5697Z" fill="url(#paint123_linear_11_1479)"/>
<path d="M84.2171 23.59L83.9692 22.8586L84.7061 22.6125L84.9539 23.344L84.2171 23.59Z" fill="url(#paint124_linear_11_1479)"/>
<path d="M80.7867 29.522L80.0904 29.1787L80.4362 28.4875L81.1324 28.8308L80.7867 29.522Z" fill="url(#paint125_linear_11_1479)"/>
<path d="M103.559 41.4837L102.863 41.1405L103.209 40.4493L103.905 40.7925L103.559 41.4837Z" fill="url(#paint126_linear_11_1479)"/>
<path d="M90.6776 27.9434L89.9813 27.6001L90.3271 26.9089L91.0233 27.2521L90.6776 27.9434Z" fill="url(#paint127_linear_11_1479)"/>
<path d="M98.5169 21.73L97.8206 21.3867L98.1664 20.6955L98.8627 21.0388L98.5169 21.73Z" fill="url(#paint128_linear_11_1479)"/>
<path d="M98.076 24.2764L97.3798 23.9331L97.7256 23.2419L98.4218 23.5852L98.076 24.2764Z" fill="url(#paint129_linear_11_1479)"/>
<path d="M93.4996 18.5985L93.2518 17.867L93.9887 17.621L94.2365 18.3525L93.4996 18.5985Z" fill="url(#paint130_linear_11_1479)"/>
<path d="M86.015 8.09959L85.7672 7.3681L86.504 7.12207L86.7519 7.85356L86.015 8.09959Z" fill="url(#paint131_linear_11_1479)"/>
<path d="M94.384 30.5651L95.4616 29.3944L96.6408 30.4642L95.5633 31.6349L94.384 30.5651Z" fill="url(#paint132_linear_11_1479)"/>
<path d="M97.8204 32.8281L98.898 31.6574L100.077 32.7272L98.9997 33.8979L97.8204 32.8281Z" fill="url(#paint133_linear_11_1479)"/>
<path d="M100.626 22.7896L102.22 22.6867L102.324 24.2692L100.729 24.3721L100.626 22.7896Z" fill="url(#paint134_linear_11_1479)"/>
<path d="M93.5654 28.4355L93.6128 26.8503L95.2096 26.8974L95.1622 28.4825L93.5654 28.4355Z" fill="url(#paint135_linear_11_1479)"/>
<path d="M88.1195 28.7253L88.1741 27.1404L89.7707 27.1946L89.716 28.7795L88.1195 28.7253Z" fill="url(#paint136_linear_11_1479)"/>
<path d="M89.037 24.8062L89.0917 23.2213L90.6882 23.2756L90.6336 24.8605L89.037 24.8062Z" fill="url(#paint137_linear_11_1479)"/>
<path d="M98.7162 28.2934L97.9621 28.1055L98.1514 27.3569L98.9054 27.5448L98.7162 28.2934Z" fill="url(#paint138_linear_11_1479)"/>
<path d="M89.1883 39.0808L90.2659 37.9101L91.4452 38.9799L90.3676 40.1506L89.1883 39.0808Z" fill="url(#paint139_linear_11_1479)"/>
<path d="M90.6488 32.6658L91.1337 31.1548L92.6558 31.6362L92.1709 33.1472L90.6488 32.6658Z" fill="url(#paint140_linear_11_1479)"/>
<path d="M88.5767 35.4731L87.8226 35.2853L88.0119 34.5367L88.7659 34.7246L88.5767 35.4731Z" fill="url(#paint141_linear_11_1479)"/>
<path d="M83.1888 34.0624L82.4348 33.8746L82.624 33.126L83.3781 33.3139L83.1888 34.0624Z" fill="url(#paint142_linear_11_1479)"/>
<path d="M88.1964 33.4034L87.797 32.7412L88.464 32.3448L88.8634 33.0069L88.1964 33.4034Z" fill="url(#paint143_linear_11_1479)"/>
<path d="M86.1966 27.2559L85.4425 27.068L85.6318 26.3195L86.3858 26.5073L86.1966 27.2559Z" fill="url(#paint144_linear_11_1479)"/>
<path d="M95.4398 36.2782L94.6857 36.0903L94.875 35.3417L95.629 35.5296L95.4398 36.2782Z" fill="url(#paint145_linear_11_1479)"/>
<path d="M101.76 28.5455L101.006 28.3577L101.195 27.6091L101.949 27.797L101.76 28.5455Z" fill="url(#paint146_linear_11_1479)"/>
<path d="M102.556 34.2036L101.802 34.0157L101.991 33.2672L102.745 33.4551L102.556 34.2036Z" fill="url(#paint147_linear_11_1479)"/>
<path d="M93.1552 48.9703L93.656 47.4644L95.1729 47.9616L94.6721 49.4674L93.1552 48.9703Z" fill="url(#paint148_linear_11_1479)"/>
<path d="M96.7697 47.8176L98.3648 47.7313L98.4517 49.3148L96.8566 49.4011L96.7697 47.8176Z" fill="url(#paint149_linear_11_1479)"/>
<path d="M94.4232 51.1725L95.2386 49.8088L96.6123 50.6182L95.7969 51.9819L94.4232 51.1725Z" fill="url(#paint150_linear_11_1479)"/>
<path d="M97.4068 46.1936L96.63 46.1618L96.662 45.3907L97.4388 45.4225L97.4068 46.1936Z" fill="url(#paint151_linear_11_1479)"/>
<path d="M84.2856 47.635L83.5089 47.6033L83.5409 46.8322L84.3176 46.8639L84.2856 47.635Z" fill="url(#paint152_linear_11_1479)"/>
<path d="M99.3446 51.5735L98.5678 51.5417L98.5998 50.7706L99.3766 50.8024L99.3446 51.5735Z" fill="url(#paint153_linear_11_1479)"/>
<path d="M96.5994 26.4595L96.2025 25.7959L96.871 25.4019L97.2679 26.0655L96.5994 26.4595Z" fill="url(#paint154_linear_11_1479)"/>
<path d="M100.783 39.2321L101.852 38.0536L103.039 39.1148L101.97 40.2933L100.783 39.2321Z" fill="url(#paint155_linear_11_1479)"/>
<path d="M88.0476 41.0839L87.2529 42.4596L85.8671 41.6707L86.6617 40.295L88.0476 41.0839Z" fill="url(#paint156_linear_11_1479)"/>
<path d="M84.6018 45.96L84.4359 44.3827L86.0248 44.2181L86.1906 45.7953L84.6018 45.96Z" fill="url(#paint157_linear_11_1479)"/>
<path d="M83.2086 49.9294L83.0427 48.3521L84.6316 48.1875L84.7975 49.7647L83.2086 49.9294Z" fill="url(#paint158_linear_11_1479)"/>
<path d="M85.2277 52.161L84.0981 51.0396L85.2277 49.9183L86.3573 51.0396L85.2277 52.161Z" fill="url(#paint159_linear_11_1479)"/>
<path d="M82.6465 47.7969L82.4868 48.5522L81.726 48.3937L81.8856 47.6384L82.6465 47.7969Z" fill="url(#paint160_linear_11_1479)"/>
<path d="M81.5385 51.5759L80.318 50.5527L81.3487 49.3411L82.5692 50.3643L81.5385 51.5759Z" fill="url(#paint161_linear_11_1479)"/>
<path d="M84.2456 55.1635L83.0251 54.1403L84.0558 52.9287L85.2763 53.9519L84.2456 55.1635Z" fill="url(#paint162_linear_11_1479)"/>
<path d="M89.9283 47.5791L89.7624 46.0018L91.3513 45.8372L91.5171 47.4144L89.9283 47.5791Z" fill="url(#paint163_linear_11_1479)"/>
<path d="M77.663 50.6167L77.5033 51.372L76.7424 51.2135L76.9021 50.4582L77.663 50.6167Z" fill="url(#paint164_linear_11_1479)"/>
<path d="M76.9595 48.7565L77.1487 49.5051L76.3947 49.6929L76.2055 48.9444L76.9595 48.7565Z" fill="url(#paint165_linear_11_1479)"/>
<path d="M73.3815 45.9856L73.2218 46.7409L72.4609 46.5825L72.6206 45.8271L73.3815 45.9856Z" fill="url(#paint166_linear_11_1479)"/>
<path d="M78.4245 49.1119L78.2648 49.8672L77.504 49.7087L77.6636 48.9534L78.4245 49.1119Z" fill="url(#paint167_linear_11_1479)"/>
<path d="M95.8038 46.5629L96.4796 46.9444L96.0952 47.6152L95.4195 47.2337L95.8038 46.5629Z" fill="url(#paint168_linear_11_1479)"/>
<path d="M75.796 45.3701L76.4923 45.0268L76.8381 45.718L76.1418 46.0613L75.796 45.3701Z" fill="url(#paint169_linear_11_1479)"/>
<path d="M77.4782 46.7569L77.7275 46.0259L78.4638 46.2734L78.2146 47.0044L77.4782 46.7569Z" fill="url(#paint170_linear_11_1479)"/>
<path d="M101.468 46.457L102.164 46.1138L102.51 46.805L101.813 47.1483L101.468 46.457Z" fill="url(#paint171_linear_11_1479)"/>
<path d="M78.8212 50.8736L79.5175 50.5303L79.8633 51.2215L79.167 51.5648L78.8212 50.8736Z" fill="url(#paint172_linear_11_1479)"/>
<path d="M94.7891 43.5036L93.9903 42.1302L95.3738 41.3373L96.1725 42.7107L94.7891 43.5036Z" fill="url(#paint173_linear_11_1479)"/>
<path d="M91.5123 44.3044L92.2086 43.9611L92.5544 44.6523L91.8581 44.9956L91.5123 44.3044Z" fill="url(#paint174_linear_11_1479)"/>
<path d="M74.1502 45.9963L73.0726 44.8256L74.2519 43.7558L75.3295 44.9265L74.1502 45.9963Z" fill="url(#paint175_linear_11_1479)"/>
<path d="M89.5624 46.9484L90.3165 46.7605L90.5058 47.5091L89.7517 47.6969L89.5624 46.9484Z" fill="url(#paint176_linear_11_1479)"/>
<path d="M95.7261 48.383L95.7173 48.3257L96.0107 48.2822L95.7123 47.8614L95.6584 48.0718L95.5367 48.0407L95.4941 48.3245L95.7261 48.383Z" fill="url(#paint177_linear_11_1479)"/>
<path d="M98.5888 47.8228L98.6878 47.5278H98.1662L98.5888 47.8228Z" fill="url(#paint178_linear_11_1479)"/>
<path d="M103.634 49.3514L104.278 49.1361L104.518 49.8481V48.566L103.953 48.9631L103.224 47.9411L103.119 48.632L102.63 48.5585L102.932 49.1635L102.235 49.507L101.889 48.8149L102.461 48.5336L101.887 48.4477L101.708 49.6664L100.13 49.4174L100.151 49.278L100.078 49.4025L98.6991 48.6096L98.9499 48.1863L98.6113 48.0731L97.8051 49.2046L97.4289 48.9519L97.5367 49.6564L97.2019 49.7062L97.5493 49.9054L97.4138 50.1381L97.5467 50.3672L97.148 50.5962L96.7505 51.2846L96.353 51.0568L96.2953 51.0904L96.3919 51.2261L97.5417 51.5161L97.3562 52.2381L97.7085 52.065L98.0546 52.7571L97.3574 53.1007L97.2107 52.8069L97.148 53.0559L96.9712 53.0111L97.1681 53.4032L96.4709 53.7467L96.1248 53.0546L96.4709 52.8841L95.7273 52.6961L95.5631 52.8107L94.6414 51.5161L95.77 50.7244L95.3675 50.4941L95.5693 50.1468L95.4602 49.9601L94.7957 49.7834L94.9474 49.1909L93.775 49.0153L93.8866 48.2797L93.3762 48.6382L93.0866 48.2311L92.743 48.9195L92.0458 48.5759L92.3919 47.8838L93.0741 48.2199L92.5838 47.5303H92.4371L92.0609 47.6548L92.0183 47.5303H91.2158L91.1668 47.8515L91.3111 48.1004L89.9318 48.8934L89.765 48.6058L89.4277 49.2792L88.7305 48.9357L89.0766 48.2436L89.7449 48.5735L89.1393 47.5316H88.8822L88.8647 47.6449L89.1343 47.7519L88.8459 48.4689L88.4697 48.3183L88.3443 48.7813L88.8584 49.6651L87.8415 50.2477L88.3769 50.5116L88.0308 51.2037L87.8126 51.0954L87.7738 52.2094L87.7926 52.1858L89.039 53.1816L88.639 53.6795L88.4358 55.0114L86.8559 54.7737L86.9186 54.3604L86.7167 54.2932L86.7995 54.0442H86.4032V54.3816L84.8058 54.3741V53.3982L84.3744 53.5426L84.6327 53.7554L84.1312 54.3504L84.0572 54.2894L83.8703 54.3965L84.2754 54.6791L83.923 55.177L84.5788 55.3848L84.6302 54.9492L85.8503 55.0923L86.0083 54.7761L86.7054 55.1197L86.3594 55.8118L86.1487 55.7072L86.0233 56.7105L84.8559 56.5736L85.3186 57.2234L84.012 58.1308L83.8628 57.9217L82.7042 58.6885L81.8177 57.369L83.0415 56.5587L82.8497 56.4977L83.1744 55.4844L81.6334 55.0948L82.0283 53.5575L82.1048 53.5774V53.5687L83.4841 52.7758L83.8691 53.438L84.0208 53.2563L84.2064 53.4094L84.012 52.8343L84.1374 52.7932L84.081 52.4696L84.8471 52.3376L84.9249 52.7808H85.2522L86.16 52.1435L86.2051 50.8476L87.3825 50.8875L87.3173 50.8551L87.543 50.4033L87.4565 50.4531L87.0804 49.802L85.7261 50.753L85.6471 50.6423L85.0942 51.607L83.8189 50.8862L83.8127 50.9111L83.6873 50.8813L83.9606 51.1788L82.7807 52.248L81.9619 51.358L81.9193 52.609L80.323 52.5542L80.3719 51.1439L80.313 51.1974L79.8842 50.7319L79.6986 51.3978L78.6553 51.1115L78.2578 51.6704L76.9538 50.7555L77.0127 50.6734H75.8641L75.8616 49.2805L75.6748 49.1884L75.3663 49.8033L74.6691 49.4597L75.0152 48.7676L75.6936 49.1025L75.7463 48.9967L75.5745 48.6531L76.0923 48.4042L75.9594 47.5328H75.3162L75.4353 48.3133L75.1945 48.3494L75.3199 48.5374L74.6691 48.9593L74.3507 48.4751L74.2403 48.4913C74.213 48.5758 74.1705 48.6546 74.1149 48.7241L74.135 48.8012L73.997 48.8361C73.9057 48.9023 73.7993 48.945 73.6873 48.9606L73.7036 48.9892L73.4215 49.151V49.2879H73.1808L72.3193 49.7859L72.2729 49.7049L71.9419 50.9945L71.1532 50.7867L71.9783 51.6829L70.7983 52.7521L69.7174 51.5821L70.7206 50.6771L70.3921 50.5937L70.7682 49.1062L70.219 48.9917L70.3783 48.2361L71.1394 48.3942L70.9889 49.1087L72.0861 49.3863L72.0284 49.2879H71.8178V48.9195L71.5156 48.4004L71.814 48.2287V47.6996H72.4209C72.4516 47.6364 72.4918 47.578 72.54 47.5266H71.0654L70.9826 47.9175L70.3958 47.793L70.2629 48.3096L69.7714 48.1851L69.9068 48.4179L68.9914 48.9419L69.6247 49.3054L68.8259 50.6746L68.772 50.6435V52.5107L68.8648 52.5567L68.772 52.7422V54.1587L69.9469 54.3355L69.7074 55.9039L68.772 55.7632V57.5321L69.6247 58.02L68.8259 59.3893L68.772 59.3581V60.6788L70.1751 60.8892L69.9356 62.4576L68.772 62.2821V65.0082H35.7753C16.667 65.0293 1.06457 50.2253 0.0601877 31.3682C0.0488196 31.3495 0.0435634 31.3278 0.0451408 31.306C0.0372601 31.2893 0.0338073 31.2709 0.0351095 31.2525C0.0288679 31.2379 0.0262855 31.2221 0.027586 31.2064C0.0184763 31.1961 0.0115599 31.184 0.00725086 31.171C0.00294178 31.1579 0.00132858 31.1442 0.00250782 31.1305H0V132.996H35.7503V94.2005H68.787C87.9606 94.2005 103.611 109.285 104.524 128.238V63.797L104.279 63.6725L104.524 63.1846V57.3665L103.897 57.8072L102.975 56.5126L104.279 55.5977L104.53 55.9425V54.1625L104.391 54.7052L102.842 54.3131L102.891 54.1239L102.688 54.2247L102.335 53.5252L103.033 53.1816L103.094 53.3061L103.232 52.7708L104.525 53.0982V52.3152L104.003 52.0576L104.238 51.5883L103.645 51.1713L103.201 51.4825L102.95 51.1227L102.712 52.0314L101.767 51.7924L101.065 52.1995L100.266 50.8302L100.85 50.4966L100.552 50.397L100.803 49.6651L101.54 49.9141L101.46 50.1506L101.653 50.0398L101.716 50.1481L102.367 50.3124L102.287 50.2004L103.591 49.2855L103.634 49.3514ZM97.8841 50.8613L98.1235 49.2929L99.4239 49.4884L99.6746 49.3639L100.021 50.056L99.5919 50.2676L99.4665 51.0978L98.679 50.9734L98.2276 51.124L98.1499 50.8937L97.8841 50.8613ZM100.347 60.4772L99.0427 61.3921L98.121 60.0975L99.4251 59.1826L100.347 60.4772ZM100.271 56.6358L100.618 55.9437L101.316 56.2885L100.97 56.9806L100.271 56.6358ZM100.689 60.9577L102.068 61.7506L101.27 63.1198L99.8903 62.3269L100.689 60.9577ZM93.0101 66.6127L92.6151 68.15L91.0665 67.7579L91.3324 66.7222L91.0527 66.5641L91.8427 65.1862L93.2308 65.9704L92.8809 66.5803L93.0101 66.6127ZM89.2296 72.4457L89.2847 70.8611L90.881 70.9158L90.8258 72.5004L89.2296 72.4457ZM89.9631 74.8356L89.9054 76.419L88.3092 76.3642L88.3644 74.7796L89.9631 74.8356ZM85.3399 66.9189L84.9475 65.3816L85.7261 65.1862L85.7462 65.1065L85.8929 65.1438L86.496 64.992L86.5788 65.3169L87.2948 65.4974L87.044 66.4533L87.4666 66.7508L86.5424 68.0442L85.2396 67.1268L85.4014 66.9015L85.3399 66.9189ZM83.987 72.2963L84.6841 72.6399L84.338 73.3319L83.6359 72.9884L83.987 72.2963ZM83.0829 64.4542L83.429 63.7621L84.1249 64.1057L83.7788 64.7978L83.0829 64.4542ZM84.4095 71.2233L84.1587 70.4914L84.896 70.2424L85.1468 70.9743L84.4095 71.2233ZM87.0916 63.0078L87.2333 62.4564L87.2534 61.9796H87.3537L87.4791 61.4668L89.0339 61.8651L88.639 63.4024L87.0916 63.0078ZM88.2803 65.8708L89.0578 65.9044L89.0239 66.6762L88.2465 66.6425L88.2803 65.8708ZM88.6252 63.7086L89.1982 63.1858L89.7249 63.7547L89.1518 64.2775L88.6252 63.7086ZM88.2402 61.3672L87.8478 59.8299L89.3963 59.4403L89.7888 60.9776L88.2402 61.3672ZM92.0095 59.2175L91.2107 60.5867L89.8314 59.7938L90.6302 58.4246L92.0095 59.2175ZM91.7248 56.3109L92.2979 55.7881L92.8245 56.357L92.2502 56.886L91.7248 56.3109ZM92.7167 62.0468L92.3217 63.5841L90.7731 63.192L90.9675 62.4352L90.3932 61.7294L91.6358 60.7336L92.6389 61.9672L92.58 62.0145L92.7167 62.0468ZM90.8985 57.2321L90.1211 57.1985L90.1549 56.4267L90.9324 56.4603L90.8985 57.2321ZM90.3869 57.8644L89.938 58.5042L89.3023 58.0598L89.7499 57.4287L90.3869 57.8644ZM90.3179 64.3049L90.8446 64.8737L90.2716 65.3965L89.7449 64.8277L90.3179 64.3049ZM90.5198 74.5356L91.217 74.8792L90.8709 75.5713L90.1738 75.2277L90.5198 74.5356ZM92.096 59.2349L92.886 57.857L94.274 58.6412L93.4841 60.0191L92.096 59.2349ZM94.4446 57.5968L93.7223 57.8831L93.4339 57.1661L93.8577 56.9981L93.4126 56.1143L94.8421 55.406L95.5555 56.825L94.3693 57.4126L94.4446 57.5968ZM94.1035 63.6178L95.533 62.9095L95.7737 63.3887L96.8283 62.6481L97.7499 63.9426L96.4458 64.8575L96.1148 64.392L94.817 65.0355L94.1035 63.6178ZM94.432 65.9828L93.6947 66.2318L93.4439 65.4998L94.1812 65.2509L94.432 65.9828ZM98.0107 69.0113L98.3568 68.3192L99.054 68.6628L98.7079 69.3549L98.0107 69.0113ZM98.6126 71.2096L98.2665 71.9017L97.5693 71.5581L97.9154 70.8661L98.6126 71.2096ZM97.8527 67.662L96.2728 67.4243L96.5123 65.8558L98.0922 66.0936L97.8527 67.662ZM97.0414 73.7938L96.3743 74.1908L95.9743 73.5286L96.6414 73.1315L97.0414 73.7938ZM96.2201 65.7239L95.6471 66.2467L95.1204 65.6778L95.6935 65.155L96.2201 65.7239ZM95.4352 67.433L96.1323 67.7765L95.7863 68.4624L95.0891 68.1188L95.4352 67.433ZM97.0101 76.4638L98.19 77.533L97.1129 78.7044L95.933 77.6351L97.0101 76.4638ZM98.1386 75.748L98.3279 75.0012L99.0803 75.1891L98.8909 75.936L98.1386 75.748ZM97.1781 57.6877L97.4176 56.1193L98.9975 56.357L98.758 57.9254L97.1781 57.6877ZM98.2815 53.5326L98.2677 53.5264L98.6138 52.8343L99.311 53.1779L98.9649 53.87L98.4508 53.621L99.2771 54.7811L97.9731 55.696L97.0527 54.3965L98.2815 53.5326ZM97.1367 58.025L97.7725 58.4694L97.3248 59.1005L96.6891 58.6561L97.1367 58.025ZM97.0866 59.8349L96.2878 61.2041L95.6019 60.8108L94.4734 61.717L93.4703 60.4834L94.7129 59.4876L95.1392 60.0116L95.7048 59.0382L97.0866 59.8349ZM95.39 53.4007L95.785 54.938L94.2364 55.3301L94.1925 55.157L93.0302 54.9828L93.2697 53.4144L94.5687 53.6098L95.39 53.4007ZM93.2584 52.1086L93.6045 51.4165L94.3016 51.7601L93.9555 52.4522L93.2584 52.1086ZM91.4853 48.5685L92.2226 48.8174L92.165 48.988L92.333 49.0714L91.9869 49.7635L91.2847 49.4174L91.3274 49.334L91.2321 49.3029L91.4853 48.5685ZM92.2001 50.5377L92.1023 50.1643L92.6803 50.0186L92.659 49.934L94.2076 49.5419L94.6026 51.0792L94.0245 51.2248L94.0458 51.3095L93.0954 51.5497L93.2208 51.8086L92.4972 52.1559L92.649 52.4584L93.1505 52.8057L92.9625 53.0696L93.1719 53.4841L92.3919 53.8712L92.2289 54.1002L92.1035 54.0131L91.7411 54.1923L91.7048 54.1202L91.5794 54.3803L91.4176 54.3006L91.3687 54.6205L89.78 54.3903L90.0195 52.8219L91.069 52.9799L91.1004 52.9364L91.0226 52.782L91.3136 52.6376L91.6321 52.1895L91.0803 51.0929L92.2001 50.5377ZM88.8145 51.8821L88.4195 50.3448L89.2283 50.1406L89.6634 49.3938L91.0427 50.1867L90.4534 51.1999L90.5788 51.4389L89.8828 51.7825L89.8076 51.6331L88.8145 51.8821ZM88.9274 55.6574L89.6245 56.001L89.2785 56.6931L88.5813 56.3495L88.9274 55.6574ZM86.9562 56.3246L87.7637 56.7877L88.0434 56.3968L89.3462 57.3142L88.422 58.6075L87.7487 58.1308L87.5405 58.4893L86.1612 57.6964L86.9562 56.3246ZM86.4459 62.8609L85.5167 64.1555L84.2177 63.2344L85.1406 61.9448L86.4459 62.8609ZM82.9663 60.5332L83.607 61.3199L83.7738 60.2245L83.0942 58.8777L84.5236 58.1694L85.2371 59.5884L84.5913 59.9083L85.4177 60.0328L85.1782 61.6012L83.6446 61.3672L83.9694 61.7668L83.1932 62.3892L83.6446 62.7987L82.5675 63.97L81.3876 62.9008L82.1575 62.0643L81.9569 61.8153L81.8139 62.1016L81.1168 61.7581L81.4628 61.066L81.9794 61.3149L82.9663 60.5332ZM81.3136 59.9108L81.7399 60.0714L81.1732 61.5539L79.6798 60.9938L79.839 60.5768L79.5882 60.2033L79.3776 60.1722L79.4127 59.9432L79.3437 59.8411L79.4378 59.7789L79.6171 58.6038L80.1287 58.681L80.2089 58.3636L80.9613 58.5515L80.8986 58.8005L81.1932 58.8453L81.0816 59.5772L81.3136 59.9108ZM80.3958 57.2283L79.9995 56.5686L80.6666 56.1715L81.0666 56.8337L80.3958 57.2283ZM80.1174 57.064L79.7701 57.7574L79.0729 57.4138L79.419 56.7217L80.1174 57.064ZM79.2396 60.5183L78.8936 61.2104L78.1964 60.8693L78.5425 60.1772L79.2396 60.5183ZM79.4904 61.7332L80.8697 62.5261L80.5788 63.024L80.7782 63.1485L80.3556 63.797L80.1901 63.6899L80.071 63.8941L78.6917 63.1012L79.4904 61.7332ZM79.8453 65.1638L81.4252 65.4015L81.1882 66.9687L79.6083 66.7309L79.8453 65.1638ZM80.9813 64.4891L81.5544 63.9663L82.081 64.5351L81.508 65.058L80.9813 64.4891ZM82.3744 59.0121L82.6252 59.744L81.8879 59.993L81.6371 59.2611L82.3744 59.0121ZM80.2967 53.4666L80.945 53.3023L81.34 54.8396L80.086 55.157L80.0773 55.1707L80.0622 55.162L79.7926 55.2305L79.7262 54.9703L78.6929 54.3778L79.4917 53.0086L80.2967 53.4666ZM77.4817 52.2418L78.0071 52.9787L78.2252 52.3364L78.9625 52.5853L78.7118 53.3173L78.0973 53.1119L78.402 53.5388L77.098 54.4537L76.6967 53.8986L76.3632 54.0592L76.0171 53.3671L76.2428 53.255L76.1789 53.1654L77.4817 52.2418ZM77.2911 58.0063L77.5419 58.7383L76.8046 58.9872L76.5538 58.2553L77.2911 58.0063ZM75.9193 57.6914L75.0328 56.3719L76.3619 55.4919L77.2484 56.8113L75.9193 57.6914ZM75.3249 49.873L76.1237 51.2422L74.7444 52.0352L73.9456 50.6659L75.3249 49.873ZM73.1494 51.4227L74.071 52.7173L72.767 53.6322L72.3319 53.021L72.298 53.0036L72.3068 52.9849L71.8491 52.3339L73.1494 51.4227ZM72.1789 59.271L72.8761 59.6146L72.53 60.3067L71.8328 59.9631L72.1789 59.271ZM69.5921 53.5812L69.246 52.8891L69.9432 52.5455L70.2892 53.2376L69.5921 53.5812ZM70.5689 57.608L69.8679 57.2595L70.214 56.5674L70.9112 56.9109L70.5689 57.608ZM70.6416 55.5018L70.3908 54.7699L71.1281 54.521L71.3789 55.2529L70.6416 55.5018ZM73.2898 66.5504L71.7099 66.3127L71.9494 64.7443L73.5293 64.982L73.2898 66.5504ZM73.9344 57.1001L72.3507 56.8636L72.5902 55.2952L74.1701 55.533L73.9344 57.1001ZM74.5751 58.9673L74.9036 59.0507L75.0453 58.4881L75.7977 58.676L75.6547 59.2411L76.1199 59.3594L75.7249 60.8967L74.1764 60.5046L74.5751 58.9673ZM76.9412 61.3324L77.8629 62.6269L76.5588 63.5418L75.6372 62.2473L76.9412 61.3324ZM76.8033 80.1359L76.051 79.9479L76.2403 79.201L76.9926 79.389L76.8033 80.1359ZM78.244 72.122L76.6955 71.7299L77.0904 70.1926L78.639 70.5847L78.244 72.122ZM78.4522 65.9268L77.755 65.5832L78.1011 64.8912L78.7983 65.2347L78.4522 65.9268ZM79.3237 70.2051L79.0729 69.4732L79.8102 69.2242L80.061 69.9561L79.3237 70.2051ZM80.9763 77.1534L80.2791 76.8098L80.6252 76.1177L81.3224 76.4613L80.9763 77.1534ZM81.4164 72.4457L80.7193 72.1021L81.0653 71.41L81.7625 71.7536L81.4164 72.4457ZM82.2942 68.9914L81.597 68.6479L81.9431 67.9558L82.6403 68.2993L82.2942 68.9914ZM83.5907 83.2403L82.8384 83.0524L83.0277 82.3055L83.7801 82.4935L83.5907 83.2403ZM85.0854 78.2762L84.1638 76.9816L85.4666 76.0555L86.3882 77.3501L85.0854 78.2762ZM86.3807 74.9016L85.6283 74.7136L85.8177 73.9668L86.57 74.1547L86.3807 74.9016ZM87.8766 67.3894L88.2126 67.5823L88.5637 66.9699L89.9518 67.7541L89.1618 69.1321L88.8195 68.9391L88.4609 69.5615L87.0816 68.7686L87.8766 67.3894ZM88.7606 83.1183L88.0082 82.9304L88.1976 82.1835L88.9499 82.3715L88.7606 83.1183ZM88.3844 81.0458L87.9844 80.3836L88.6515 79.9865L89.0515 80.6487L88.3844 81.0458ZM90.5587 87.785L89.3788 86.7157L90.4559 85.5444L91.6358 86.6136L90.5587 87.785ZM92.3593 80.7856L90.8371 80.3039L91.3223 78.794L92.8446 79.2757L92.3593 80.7856ZM93.4465 70.7951L92.5248 69.5005L92.5913 69.4545L92.2151 69.0549L92.7882 68.5334L93.2258 69.0064L93.8239 68.5869L94.7455 69.8814L93.4465 70.7951ZM94.1913 74.6539L95.7875 74.7087L95.7323 76.2932L94.1361 76.2385L94.1913 74.6539ZM95.0577 82.9789L95.8101 83.1669L95.6207 83.9137L94.8684 83.7258L95.0577 82.9789ZM96.6878 92.1641L95.5079 91.0948L96.585 89.9235L97.7649 90.9928L96.6878 92.1641ZM99.1844 81.5325L98.0044 80.4632L99.0815 79.2919L100.261 80.3612L99.1844 81.5325ZM100.689 65.6642L100.848 65.6878L101.045 64.3945L102.625 64.6322L102.386 66.2007L102.226 66.177L102.029 67.4666L100.45 67.2288L100.689 65.6642ZM100.814 70.4242L102.408 70.3208L102.512 71.9029L100.919 72.0063L100.814 70.4242ZM101.191 76.0045L101.38 75.2576L102.132 75.4456L101.943 76.1924L101.191 76.0045ZM102.74 81.8549L101.988 81.6669L102.177 80.9201L102.93 81.108L102.74 81.8549ZM103.573 58.2428L103.824 58.9748L103.087 59.2237L102.836 58.4918L103.573 58.2428ZM103.357 60.6353L103.011 61.3274L102.319 60.9826L102.665 60.2905L103.357 60.6353ZM102.396 58.0661L102.156 59.6345L100.576 59.3967L100.816 57.8283L102.396 58.0661ZM100.689 52.2343L102.068 53.0272L101.394 54.1874L101.519 55.0313L99.948 55.2678L99.7085 53.6994L99.9806 53.6583L99.8916 53.6073L100.689 52.2343Z" fill="url(#paint179_linear_11_1479)"/>
<path d="M73.7877 48.0867L73.7688 47.9623L73.6949 48.1104L73.7877 48.0867Z" fill="url(#paint180_linear_11_1479)"/>
<path d="M70.4137 45.5596L71.1677 45.3717L71.357 46.1202L70.6029 46.3081L70.4137 45.5596Z" fill="url(#paint181_linear_11_1479)"/>
<path d="M83.5827 30.5835L82.8864 30.2402L83.2322 29.549L83.9285 29.8922L83.5827 30.5835Z" fill="url(#paint182_linear_11_1479)"/>
<path d="M94.3881 45.0459L94.1403 44.3144L94.8772 44.0684L95.125 44.7999L94.3881 45.0459Z" fill="url(#paint183_linear_11_1479)"/>
<defs>
<linearGradient id="paint0_linear_11_1479" x1="-29.803" y1="123.705" x2="55.0046" y2="-18.5061" gradientUnits="userSpaceOnUse">
<stop stop-color="white"/>
<stop offset="0.66" stop-color="white"/>
<stop offset="1" stop-color="white"/>
</linearGradient>
<linearGradient id="paint1_linear_11_1479" x1="51.937" y1="172.45" x2="136.744" y2="30.2379" gradientUnits="userSpaceOnUse">
<stop stop-color="white"/>
<stop offset="0.66" stop-color="white"/>
<stop offset="1" stop-color="white"/>
</linearGradient>
<linearGradient id="paint2_linear_11_1479" x1="30.1626" y1="159.488" x2="114.969" y2="17.273" gradientUnits="userSpaceOnUse">
<stop stop-color="white"/>
<stop offset="0.66" stop-color="white"/>
<stop offset="1" stop-color="white"/>
</linearGradient>
<linearGradient id="paint3_linear_11_1479" x1="27.9515" y1="158.163" x2="112.759" y2="15.9482" gradientUnits="userSpaceOnUse">
<stop stop-color="white"/>
<stop offset="0.66" stop-color="white"/>
<stop offset="1" stop-color="white"/>
</linearGradient>
<linearGradient id="paint4_linear_11_1479" x1="36.0861" y1="163.015" x2="120.897" y2="20.8025" gradientUnits="userSpaceOnUse">
<stop stop-color="white"/>
<stop offset="0.66" stop-color="white"/>
<stop offset="1" stop-color="white"/>
</linearGradient>
<linearGradient id="paint5_linear_11_1479" x1="11.8049" y1="148.519" x2="96.6127" y2="6.30799" gradientUnits="userSpaceOnUse">
<stop stop-color="white"/>
<stop offset="0.66" stop-color="white"/>
<stop offset="1" stop-color="white"/>
</linearGradient>
<linearGradient id="paint6_linear_11_1479" x1="11.8448" y1="148.886" x2="96.9934" y2="6.03194" gradientUnits="userSpaceOnUse">
<stop stop-color="white"/>
<stop offset="0.66" stop-color="white"/>
<stop offset="1" stop-color="white"/>
</linearGradient>
<linearGradient id="paint7_linear_11_1479" x1="13.3283" y1="149.426" x2="98.1359" y2="7.21461" gradientUnits="userSpaceOnUse">
<stop stop-color="white"/>
<stop offset="0.66" stop-color="white"/>
<stop offset="1" stop-color="white"/>
</linearGradient>
<linearGradient id="paint8_linear_11_1479" x1="9.1793" y1="146.956" x2="93.9865" y2="4.7427" gradientUnits="userSpaceOnUse">
<stop stop-color="white"/>
<stop offset="0.66" stop-color="white"/>
<stop offset="1" stop-color="white"/>
</linearGradient>
<linearGradient id="paint9_linear_11_1479" x1="12.4768" y1="148.935" x2="97.2866" y2="6.72402" gradientUnits="userSpaceOnUse">
<stop stop-color="white"/>
<stop offset="0.66" stop-color="white"/>
<stop offset="1" stop-color="white"/>
</linearGradient>
<linearGradient id="paint10_linear_11_1479" x1="15.0187" y1="150.45" x2="99.8261" y2="8.23955" gradientUnits="userSpaceOnUse">
<stop stop-color="white"/>
<stop offset="0.66" stop-color="white"/>
<stop offset="1" stop-color="white"/>
</linearGradient>
<linearGradient id="paint11_linear_11_1479" x1="11.8664" y1="148.569" x2="96.6724" y2="6.35723" gradientUnits="userSpaceOnUse">
<stop stop-color="white"/>
<stop offset="0.66" stop-color="white"/>
<stop offset="1" stop-color="white"/>
</linearGradient>
<linearGradient id="paint12_linear_11_1479" x1="10.2664" y1="147.611" x2="95.0732" y2="5.39883" gradientUnits="userSpaceOnUse">
<stop stop-color="white"/>
<stop offset="0.66" stop-color="white"/>
<stop offset="1" stop-color="white"/>
</linearGradient>
<linearGradient id="paint13_linear_11_1479" x1="14.8819" y1="150.356" x2="99.6913" y2="8.14375" gradientUnits="userSpaceOnUse">
<stop stop-color="white"/>
<stop offset="0.66" stop-color="white"/>
<stop offset="1" stop-color="white"/>
</linearGradient>
<linearGradient id="paint14_linear_11_1479" x1="12.5938" y1="148.993" x2="97.4007" y2="6.77947" gradientUnits="userSpaceOnUse">
<stop stop-color="white"/>
<stop offset="0.66" stop-color="white"/>
<stop offset="1" stop-color="white"/>
</linearGradient>
<linearGradient id="paint15_linear_11_1479" x1="15.5512" y1="150.768" x2="100.355" y2="8.55598" gradientUnits="userSpaceOnUse">
<stop stop-color="white"/>
<stop offset="0.66" stop-color="white"/>
<stop offset="1" stop-color="white"/>
</linearGradient>
<linearGradient id="paint16_linear_11_1479" x1="12.3314" y1="148.84" x2="97.1379" y2="6.63072" gradientUnits="userSpaceOnUse">
<stop stop-color="white"/>
<stop offset="0.66" stop-color="white"/>
<stop offset="1" stop-color="white"/>
</linearGradient>
<linearGradient id="paint17_linear_11_1479" x1="14.4569" y1="150.112" x2="99.2657" y2="7.89988" gradientUnits="userSpaceOnUse">
<stop stop-color="white"/>
<stop offset="0.66" stop-color="white"/>
<stop offset="1" stop-color="white"/>
</linearGradient>
<linearGradient id="paint18_linear_11_1479" x1="10.4695" y1="147.721" x2="95.277" y2="5.50902" gradientUnits="userSpaceOnUse">
<stop stop-color="white"/>
<stop offset="0.66" stop-color="white"/>
<stop offset="1" stop-color="white"/>
</linearGradient>
<linearGradient id="paint19_linear_11_1479" x1="26.3047" y1="157.167" x2="111.113" y2="14.9546" gradientUnits="userSpaceOnUse">
<stop stop-color="white"/>
<stop offset="0.66" stop-color="white"/>
<stop offset="1" stop-color="white"/>
</linearGradient>
<linearGradient id="paint20_linear_11_1479" x1="24.0167" y1="155.804" x2="108.824" y2="13.5932" gradientUnits="userSpaceOnUse">
<stop stop-color="white"/>
<stop offset="0.66" stop-color="white"/>
<stop offset="1" stop-color="white"/>
</linearGradient>
<linearGradient id="paint21_linear_11_1479" x1="24.7676" y1="156.262" x2="109.579" y2="14.0508" gradientUnits="userSpaceOnUse">
<stop stop-color="white"/>
<stop offset="0.66" stop-color="white"/>
<stop offset="1" stop-color="white"/>
</linearGradient>
<linearGradient id="paint22_linear_11_1479" x1="22.112" y1="154.678" x2="106.917" y2="12.4651" gradientUnits="userSpaceOnUse">
<stop stop-color="white"/>
<stop offset="0.66" stop-color="white"/>
<stop offset="1" stop-color="white"/>
</linearGradient>
<linearGradient id="paint23_linear_11_1479" x1="24.0553" y1="155.826" x2="108.863" y2="13.6125" gradientUnits="userSpaceOnUse">
<stop stop-color="white"/>
<stop offset="0.66" stop-color="white"/>
<stop offset="1" stop-color="white"/>
</linearGradient>
<linearGradient id="paint24_linear_11_1479" x1="26.4658" y1="157.26" x2="111.271" y2="15.0487" gradientUnits="userSpaceOnUse">
<stop stop-color="white"/>
<stop offset="0.66" stop-color="white"/>
<stop offset="1" stop-color="white"/>
</linearGradient>
<linearGradient id="paint25_linear_11_1479" x1="25.3675" y1="156.605" x2="110.174" y2="14.3931" gradientUnits="userSpaceOnUse">
<stop stop-color="white"/>
<stop offset="0.66" stop-color="white"/>
<stop offset="1" stop-color="white"/>
</linearGradient>
<linearGradient id="paint26_linear_11_1479" x1="21.7691" y1="154.464" x2="106.576" y2="12.2524" gradientUnits="userSpaceOnUse">
<stop stop-color="white"/>
<stop offset="0.66" stop-color="white"/>
<stop offset="1" stop-color="white"/>
</linearGradient>
<linearGradient id="paint27_linear_11_1479" x1="24.73" y1="156.245" x2="109.538" y2="14.0341" gradientUnits="userSpaceOnUse">
<stop stop-color="white"/>
<stop offset="0.66" stop-color="white"/>
<stop offset="1" stop-color="white"/>
</linearGradient>
<linearGradient id="paint28_linear_11_1479" x1="23.1053" y1="155.276" x2="107.915" y2="13.0647" gradientUnits="userSpaceOnUse">
<stop stop-color="white"/>
<stop offset="0.66" stop-color="white"/>
<stop offset="1" stop-color="white"/>
</linearGradient>
<linearGradient id="paint29_linear_11_1479" x1="22.5193" y1="154.922" x2="107.329" y2="12.7107" gradientUnits="userSpaceOnUse">
<stop stop-color="white"/>
<stop offset="0.66" stop-color="white"/>
<stop offset="1" stop-color="white"/>
</linearGradient>
<linearGradient id="paint30_linear_11_1479" x1="22.5858" y1="154.948" x2="107.393" y2="12.7346" gradientUnits="userSpaceOnUse">
<stop stop-color="white"/>
<stop offset="0.66" stop-color="white"/>
<stop offset="1" stop-color="white"/>
</linearGradient>
<linearGradient id="paint31_linear_11_1479" x1="26.5042" y1="157.299" x2="111.31" y2="15.0894" gradientUnits="userSpaceOnUse">
<stop stop-color="white"/>
<stop offset="0.66" stop-color="white"/>
<stop offset="1" stop-color="white"/>
</linearGradient>
<linearGradient id="paint32_linear_11_1479" x1="34.7186" y1="162.205" x2="119.528" y2="19.9909" gradientUnits="userSpaceOnUse">
<stop stop-color="white"/>
<stop offset="0.66" stop-color="white"/>
<stop offset="1" stop-color="white"/>
</linearGradient>
<linearGradient id="paint33_linear_11_1479" x1="19.0418" y1="152.819" x2="103.846" y2="10.6066" gradientUnits="userSpaceOnUse">
<stop stop-color="white"/>
<stop offset="0.66" stop-color="white"/>
<stop offset="1" stop-color="white"/>
</linearGradient>
<linearGradient id="paint34_linear_11_1479" x1="21.6188" y1="154.373" x2="106.424" y2="12.161" gradientUnits="userSpaceOnUse">
<stop stop-color="white"/>
<stop offset="0.66" stop-color="white"/>
<stop offset="1" stop-color="white"/>
</linearGradient>
<linearGradient id="paint35_linear_11_1479" x1="21.2978" y1="154.182" x2="106.105" y2="11.971" gradientUnits="userSpaceOnUse">
<stop stop-color="white"/>
<stop offset="0.66" stop-color="white"/>
<stop offset="1" stop-color="white"/>
</linearGradient>
<linearGradient id="paint36_linear_11_1479" x1="15.1339" y1="150.486" x2="99.941" y2="8.27509" gradientUnits="userSpaceOnUse">
<stop stop-color="white"/>
<stop offset="0.66" stop-color="white"/>
<stop offset="1" stop-color="white"/>
</linearGradient>
<linearGradient id="paint37_linear_11_1479" x1="19.1012" y1="152.862" x2="103.909" y2="10.6515" gradientUnits="userSpaceOnUse">
<stop stop-color="white"/>
<stop offset="0.66" stop-color="white"/>
<stop offset="1" stop-color="white"/>
</linearGradient>
<linearGradient id="paint38_linear_11_1479" x1="16.8143" y1="151.505" x2="101.624" y2="9.29179" gradientUnits="userSpaceOnUse">
<stop stop-color="white"/>
<stop offset="0.66" stop-color="white"/>
<stop offset="1" stop-color="white"/>
</linearGradient>
<linearGradient id="paint39_linear_11_1479" x1="16.9369" y1="151.574" x2="101.74" y2="9.3655" gradientUnits="userSpaceOnUse">
<stop stop-color="white"/>
<stop offset="0.66" stop-color="white"/>
<stop offset="1" stop-color="white"/>
</linearGradient>
<linearGradient id="paint40_linear_11_1479" x1="17.4211" y1="151.867" x2="102.229" y2="9.65411" gradientUnits="userSpaceOnUse">
<stop stop-color="white"/>
<stop offset="0.66" stop-color="white"/>
<stop offset="1" stop-color="white"/>
</linearGradient>
<linearGradient id="paint41_linear_11_1479" x1="17.0685" y1="151.649" x2="101.877" y2="9.43716" gradientUnits="userSpaceOnUse">
<stop stop-color="white"/>
<stop offset="0.66" stop-color="white"/>
<stop offset="1" stop-color="white"/>
</linearGradient>
<linearGradient id="paint42_linear_11_1479" x1="25.6874" y1="156.801" x2="110.493" y2="14.5887" gradientUnits="userSpaceOnUse">
<stop stop-color="white"/>
<stop offset="0.66" stop-color="white"/>
<stop offset="1" stop-color="white"/>
</linearGradient>
<linearGradient id="paint43_linear_11_1479" x1="4.79102" y1="144.335" x2="89.5977" y2="2.12404" gradientUnits="userSpaceOnUse">
<stop stop-color="white"/>
<stop offset="0.66" stop-color="white"/>
<stop offset="1" stop-color="white"/>
</linearGradient>
<linearGradient id="paint44_linear_11_1479" x1="7.19963" y1="145.772" x2="92.0068" y2="3.56032" gradientUnits="userSpaceOnUse">
<stop stop-color="white"/>
<stop offset="0.66" stop-color="white"/>
<stop offset="1" stop-color="white"/>
</linearGradient>
<linearGradient id="paint45_linear_11_1479" x1="6.09894" y1="145.114" x2="90.9055" y2="2.90288" gradientUnits="userSpaceOnUse">
<stop stop-color="white"/>
<stop offset="0.66" stop-color="white"/>
<stop offset="1" stop-color="white"/>
</linearGradient>
<linearGradient id="paint46_linear_11_1479" x1="9.72664" y1="147.278" x2="94.534" y2="5.06648" gradientUnits="userSpaceOnUse">
<stop stop-color="white"/>
<stop offset="0.66" stop-color="white"/>
<stop offset="1" stop-color="white"/>
</linearGradient>
<linearGradient id="paint47_linear_11_1479" x1="5.46235" y1="144.752" x2="90.2706" y2="2.53858" gradientUnits="userSpaceOnUse">
<stop stop-color="white"/>
<stop offset="0.66" stop-color="white"/>
<stop offset="1" stop-color="white"/>
</linearGradient>
<linearGradient id="paint48_linear_11_1479" x1="8.00487" y1="146.264" x2="92.8078" y2="4.05337" gradientUnits="userSpaceOnUse">
<stop stop-color="white"/>
<stop offset="0.66" stop-color="white"/>
<stop offset="1" stop-color="white"/>
</linearGradient>
<linearGradient id="paint49_linear_11_1479" x1="4.57195" y1="144.22" x2="89.3819" y2="2.00966" gradientUnits="userSpaceOnUse">
<stop stop-color="white"/>
<stop offset="0.66" stop-color="white"/>
<stop offset="1" stop-color="white"/>
</linearGradient>
<linearGradient id="paint50_linear_11_1479" x1="3.25182" y1="143.428" x2="88.0594" y2="1.21519" gradientUnits="userSpaceOnUse">
<stop stop-color="white"/>
<stop offset="0.66" stop-color="white"/>
<stop offset="1" stop-color="white"/>
</linearGradient>
<linearGradient id="paint51_linear_11_1479" x1="1.66197" y1="142.469" x2="86.4689" y2="0.25764" gradientUnits="userSpaceOnUse">
<stop stop-color="white"/>
<stop offset="0.66" stop-color="white"/>
<stop offset="1" stop-color="white"/>
</linearGradient>
<linearGradient id="paint52_linear_11_1479" x1="2.09147" y1="142.74" x2="86.8968" y2="0.525985" gradientUnits="userSpaceOnUse">
<stop stop-color="white"/>
<stop offset="0.66" stop-color="white"/>
<stop offset="1" stop-color="white"/>
</linearGradient>
<linearGradient id="paint53_linear_11_1479" x1="0.478495" y1="141.778" x2="85.2826" y2="-0.43631" gradientUnits="userSpaceOnUse">
<stop stop-color="white"/>
<stop offset="0.66" stop-color="white"/>
<stop offset="1" stop-color="white"/>
</linearGradient>
<linearGradient id="paint54_linear_11_1479" x1="0.641396" y1="141.876" x2="85.4497" y2="-0.335367" gradientUnits="userSpaceOnUse">
<stop stop-color="white"/>
<stop offset="0.66" stop-color="white"/>
<stop offset="1" stop-color="white"/>
</linearGradient>
<linearGradient id="paint55_linear_11_1479" x1="2.99285" y1="143.276" x2="87.7995" y2="1.06618" gradientUnits="userSpaceOnUse">
<stop stop-color="white"/>
<stop offset="0.66" stop-color="white"/>
<stop offset="1" stop-color="white"/>
</linearGradient>
<linearGradient id="paint56_linear_11_1479" x1="-2.18224" y1="140.187" x2="82.6255" y2="-2.02501" gradientUnits="userSpaceOnUse">
<stop stop-color="white"/>
<stop offset="0.66" stop-color="white"/>
<stop offset="1" stop-color="white"/>
</linearGradient>
<linearGradient id="paint57_linear_11_1479" x1="4.7794" y1="144.331" x2="89.5864" y2="2.11899" gradientUnits="userSpaceOnUse">
<stop stop-color="white"/>
<stop offset="0.66" stop-color="white"/>
<stop offset="1" stop-color="white"/>
</linearGradient>
<linearGradient id="paint58_linear_11_1479" x1="7.18864" y1="145.764" x2="91.9957" y2="3.5542" gradientUnits="userSpaceOnUse">
<stop stop-color="white"/>
<stop offset="0.66" stop-color="white"/>
<stop offset="1" stop-color="white"/>
</linearGradient>
<linearGradient id="paint59_linear_11_1479" x1="5.45394" y1="144.746" x2="90.261" y2="2.53446" gradientUnits="userSpaceOnUse">
<stop stop-color="white"/>
<stop offset="0.66" stop-color="white"/>
<stop offset="1" stop-color="white"/>
</linearGradient>
<linearGradient id="paint60_linear_11_1479" x1="2.42537" y1="142.934" x2="87.2302" y2="0.723775" gradientUnits="userSpaceOnUse">
<stop stop-color="white"/>
<stop offset="0.66" stop-color="white"/>
<stop offset="1" stop-color="white"/>
</linearGradient>
<linearGradient id="paint61_linear_11_1479" x1="7.86739" y1="146.171" x2="92.6733" y2="3.95812" gradientUnits="userSpaceOnUse">
<stop stop-color="white"/>
<stop offset="0.66" stop-color="white"/>
<stop offset="1" stop-color="white"/>
</linearGradient>
<linearGradient id="paint62_linear_11_1479" x1="10.2762" y1="147.605" x2="95.0837" y2="5.39305" gradientUnits="userSpaceOnUse">
<stop stop-color="white"/>
<stop offset="0.66" stop-color="white"/>
<stop offset="1" stop-color="white"/>
</linearGradient>
<linearGradient id="paint63_linear_11_1479" x1="13.9091" y1="149.772" x2="98.7158" y2="7.55945" gradientUnits="userSpaceOnUse">
<stop stop-color="white"/>
<stop offset="0.66" stop-color="white"/>
<stop offset="1" stop-color="white"/>
</linearGradient>
<linearGradient id="paint64_linear_11_1479" x1="9.17429" y1="146.95" x2="93.9805" y2="4.73718" gradientUnits="userSpaceOnUse">
<stop stop-color="white"/>
<stop offset="0.66" stop-color="white"/>
<stop offset="1" stop-color="white"/>
</linearGradient>
<linearGradient id="paint65_linear_11_1479" x1="5.57962" y1="144.809" x2="90.3858" y2="2.59486" gradientUnits="userSpaceOnUse">
<stop stop-color="white"/>
<stop offset="0.66" stop-color="white"/>
<stop offset="1" stop-color="white"/>
</linearGradient>
<linearGradient id="paint66_linear_11_1479" x1="8.53801" y1="146.589" x2="93.3452" y2="4.37328" gradientUnits="userSpaceOnUse">
<stop stop-color="white"/>
<stop offset="0.66" stop-color="white"/>
<stop offset="1" stop-color="white"/>
</linearGradient>
<linearGradient id="paint67_linear_11_1479" x1="11.0805" y1="148.101" x2="95.8843" y2="5.88858" gradientUnits="userSpaceOnUse">
<stop stop-color="white"/>
<stop offset="0.66" stop-color="white"/>
<stop offset="1" stop-color="white"/>
</linearGradient>
<linearGradient id="paint68_linear_11_1479" x1="15.1926" y1="150.523" x2="99.9986" y2="8.31357" gradientUnits="userSpaceOnUse">
<stop stop-color="white"/>
<stop offset="0.66" stop-color="white"/>
<stop offset="1" stop-color="white"/>
</linearGradient>
<linearGradient id="paint69_linear_11_1479" x1="6.33054" y1="145.263" x2="91.1375" y2="3.05223" gradientUnits="userSpaceOnUse">
<stop stop-color="white"/>
<stop offset="0.66" stop-color="white"/>
<stop offset="1" stop-color="white"/>
</linearGradient>
<linearGradient id="paint70_linear_11_1479" x1="-1.59604" y1="140.392" x2="82.9394" y2="-1.97972" gradientUnits="userSpaceOnUse">
<stop stop-color="white"/>
<stop offset="0.66" stop-color="white"/>
<stop offset="1" stop-color="white"/>
</linearGradient>
<linearGradient id="paint71_linear_11_1479" x1="7.44432" y1="145.926" x2="92.251" y2="3.71605" gradientUnits="userSpaceOnUse">
<stop stop-color="white"/>
<stop offset="0.66" stop-color="white"/>
<stop offset="1" stop-color="white"/>
</linearGradient>
<linearGradient id="paint72_linear_11_1479" x1="3.32168" y1="143.457" x2="88.1275" y2="1.2459" gradientUnits="userSpaceOnUse">
<stop stop-color="white"/>
<stop offset="0.66" stop-color="white"/>
<stop offset="1" stop-color="white"/>
</linearGradient>
<linearGradient id="paint73_linear_11_1479" x1="15.2118" y1="150.549" x2="100.019" y2="8.33826" gradientUnits="userSpaceOnUse">
<stop stop-color="white"/>
<stop offset="0.66" stop-color="white"/>
<stop offset="1" stop-color="white"/>
</linearGradient>
<linearGradient id="paint74_linear_11_1479" x1="17.6299" y1="151.994" x2="102.437" y2="9.78409" gradientUnits="userSpaceOnUse">
<stop stop-color="white"/>
<stop offset="0.66" stop-color="white"/>
<stop offset="1" stop-color="white"/>
</linearGradient>
<linearGradient id="paint75_linear_11_1479" x1="12.9702" y1="149.216" x2="97.7763" y2="7.0042" gradientUnits="userSpaceOnUse">
<stop stop-color="white"/>
<stop offset="0.66" stop-color="white"/>
<stop offset="1" stop-color="white"/>
</linearGradient>
<linearGradient id="paint76_linear_11_1479" x1="13.7149" y1="149.659" x2="98.5225" y2="7.44777" gradientUnits="userSpaceOnUse">
<stop stop-color="white"/>
<stop offset="0.66" stop-color="white"/>
<stop offset="1" stop-color="white"/>
</linearGradient>
<linearGradient id="paint77_linear_11_1479" x1="15.8955" y1="150.961" x2="100.702" y2="8.74854" gradientUnits="userSpaceOnUse">
<stop stop-color="white"/>
<stop offset="0.66" stop-color="white"/>
<stop offset="1" stop-color="white"/>
</linearGradient>
<linearGradient id="paint78_linear_11_1479" x1="7.23435" y1="145.808" x2="92.0413" y2="3.59479" gradientUnits="userSpaceOnUse">
<stop stop-color="white"/>
<stop offset="0.66" stop-color="white"/>
<stop offset="1" stop-color="white"/>
</linearGradient>
<linearGradient id="paint79_linear_11_1479" x1="15.3887" y1="150.654" x2="100.196" y2="8.44132" gradientUnits="userSpaceOnUse">
<stop stop-color="white"/>
<stop offset="0.66" stop-color="white"/>
<stop offset="1" stop-color="white"/>
</linearGradient>
<linearGradient id="paint80_linear_11_1479" x1="18.3012" y1="152.392" x2="103.107" y2="10.1796" gradientUnits="userSpaceOnUse">
<stop stop-color="white"/>
<stop offset="0.66" stop-color="white"/>
<stop offset="1" stop-color="white"/>
</linearGradient>
<linearGradient id="paint81_linear_11_1479" x1="16.3819" y1="151.247" x2="101.19" y2="9.03604" gradientUnits="userSpaceOnUse">
<stop stop-color="white"/>
<stop offset="0.66" stop-color="white"/>
<stop offset="1" stop-color="white"/>
</linearGradient>
<linearGradient id="paint82_linear_11_1479" x1="17.2602" y1="151.77" x2="102.068" y2="9.55762" gradientUnits="userSpaceOnUse">
<stop stop-color="white"/>
<stop offset="0.66" stop-color="white"/>
<stop offset="1" stop-color="white"/>
</linearGradient>
<linearGradient id="paint83_linear_11_1479" x1="9.18438" y1="146.955" x2="93.9906" y2="4.74421" gradientUnits="userSpaceOnUse">
<stop stop-color="white"/>
<stop offset="0.66" stop-color="white"/>
<stop offset="1" stop-color="white"/>
</linearGradient>
<linearGradient id="paint84_linear_11_1479" x1="11.4132" y1="148.299" x2="96.2176" y2="6.08535" gradientUnits="userSpaceOnUse">
<stop stop-color="white"/>
<stop offset="0.66" stop-color="white"/>
<stop offset="1" stop-color="white"/>
</linearGradient>
<linearGradient id="paint85_linear_11_1479" x1="10.708" y1="147.873" x2="95.5122" y2="5.66176" gradientUnits="userSpaceOnUse">
<stop stop-color="white"/>
<stop offset="0.66" stop-color="white"/>
<stop offset="1" stop-color="white"/>
</linearGradient>
<linearGradient id="paint86_linear_11_1479" x1="9.22017" y1="146.974" x2="94.0264" y2="4.76494" gradientUnits="userSpaceOnUse">
<stop stop-color="white"/>
<stop offset="0.66" stop-color="white"/>
<stop offset="1" stop-color="white"/>
</linearGradient>
<linearGradient id="paint87_linear_11_1479" x1="14.2875" y1="150.01" x2="99.0969" y2="7.80059" gradientUnits="userSpaceOnUse">
<stop stop-color="white"/>
<stop offset="0.66" stop-color="white"/>
<stop offset="1" stop-color="white"/>
</linearGradient>
<linearGradient id="paint88_linear_11_1479" x1="6.99475" y1="145.648" x2="91.8018" y2="3.43733" gradientUnits="userSpaceOnUse">
<stop stop-color="white"/>
<stop offset="0.66" stop-color="white"/>
<stop offset="1" stop-color="white"/>
</linearGradient>
<linearGradient id="paint89_linear_11_1479" x1="31.3869" y1="160.198" x2="116.193" y2="17.985" gradientUnits="userSpaceOnUse">
<stop stop-color="white"/>
<stop offset="0.66" stop-color="white"/>
<stop offset="1" stop-color="white"/>
</linearGradient>
<linearGradient id="paint90_linear_11_1479" x1="30.5776" y1="159.716" x2="115.383" y2="17.5021" gradientUnits="userSpaceOnUse">
<stop stop-color="white"/>
<stop offset="0.66" stop-color="white"/>
<stop offset="1" stop-color="white"/>
</linearGradient>
<linearGradient id="paint91_linear_11_1479" x1="34.1926" y1="161.871" x2="118.999" y2="19.658" gradientUnits="userSpaceOnUse">
<stop stop-color="white"/>
<stop offset="0.66" stop-color="white"/>
<stop offset="1" stop-color="white"/>
</linearGradient>
<linearGradient id="paint92_linear_11_1479" x1="32.7731" y1="160.685" x2="117.478" y2="18.4139" gradientUnits="userSpaceOnUse">
<stop stop-color="white"/>
<stop offset="0.66" stop-color="white"/>
<stop offset="1" stop-color="white"/>
</linearGradient>
<linearGradient id="paint93_linear_11_1479" x1="10.6452" y1="147.844" x2="95.4517" y2="5.62834" gradientUnits="userSpaceOnUse">
<stop stop-color="white"/>
<stop offset="0.66" stop-color="white"/>
<stop offset="1" stop-color="white"/>
</linearGradient>
<linearGradient id="paint94_linear_11_1479" x1="4.00673" y1="143.87" x2="88.8126" y2="1.65847" gradientUnits="userSpaceOnUse">
<stop stop-color="white"/>
<stop offset="0.66" stop-color="white"/>
<stop offset="1" stop-color="white"/>
</linearGradient>
<linearGradient id="paint95_linear_11_1479" x1="9.18325" y1="146.954" x2="93.9894" y2="4.7413" gradientUnits="userSpaceOnUse">
<stop stop-color="white"/>
<stop offset="0.66" stop-color="white"/>
<stop offset="1" stop-color="white"/>
</linearGradient>
<linearGradient id="paint96_linear_11_1479" x1="11.169" y1="148.138" x2="95.9765" y2="5.92706" gradientUnits="userSpaceOnUse">
<stop stop-color="white"/>
<stop offset="0.66" stop-color="white"/>
<stop offset="1" stop-color="white"/>
</linearGradient>
<linearGradient id="paint97_linear_11_1479" x1="12.6358" y1="149.029" x2="97.4434" y2="6.81806" gradientUnits="userSpaceOnUse">
<stop stop-color="white"/>
<stop offset="0.66" stop-color="white"/>
<stop offset="1" stop-color="white"/>
</linearGradient>
<linearGradient id="paint98_linear_11_1479" x1="23.6038" y1="155.551" x2="108.409" y2="13.3371" gradientUnits="userSpaceOnUse">
<stop stop-color="white"/>
<stop offset="0.66" stop-color="white"/>
<stop offset="1" stop-color="white"/>
</linearGradient>
<linearGradient id="paint99_linear_11_1479" x1="24.5916" y1="156.146" x2="109.396" y2="13.934" gradientUnits="userSpaceOnUse">
<stop stop-color="white"/>
<stop offset="0.66" stop-color="white"/>
<stop offset="1" stop-color="white"/>
</linearGradient>
<linearGradient id="paint100_linear_11_1479" x1="22.3247" y1="154.796" x2="107.133" y2="12.5825" gradientUnits="userSpaceOnUse">
<stop stop-color="white"/>
<stop offset="0.66" stop-color="white"/>
<stop offset="1" stop-color="white"/>
</linearGradient>
<linearGradient id="paint101_linear_11_1479" x1="27.2434" y1="157.725" x2="112.05" y2="15.5118" gradientUnits="userSpaceOnUse">
<stop stop-color="white"/>
<stop offset="0.66" stop-color="white"/>
<stop offset="1" stop-color="white"/>
</linearGradient>
<linearGradient id="paint102_linear_11_1479" x1="15.5617" y1="150.761" x2="100.369" y2="8.54808" gradientUnits="userSpaceOnUse">
<stop stop-color="white"/>
<stop offset="0.66" stop-color="white"/>
<stop offset="1" stop-color="white"/>
</linearGradient>
<linearGradient id="paint103_linear_11_1479" x1="9.51168" y1="147.152" x2="94.3181" y2="4.94058" gradientUnits="userSpaceOnUse">
<stop stop-color="white"/>
<stop offset="0.66" stop-color="white"/>
<stop offset="1" stop-color="white"/>
</linearGradient>
<linearGradient id="paint104_linear_11_1479" x1="16.8736" y1="151.539" x2="101.68" y2="9.32781" gradientUnits="userSpaceOnUse">
<stop stop-color="white"/>
<stop offset="0.66" stop-color="white"/>
<stop offset="1" stop-color="white"/>
</linearGradient>
<linearGradient id="paint105_linear_11_1479" x1="13.1795" y1="149.337" x2="97.9843" y2="7.12345" gradientUnits="userSpaceOnUse">
<stop stop-color="white"/>
<stop offset="0.66" stop-color="white"/>
<stop offset="1" stop-color="white"/>
</linearGradient>
<linearGradient id="paint106_linear_11_1479" x1="19.8516" y1="153.317" x2="104.659" y2="11.1037" gradientUnits="userSpaceOnUse">
<stop stop-color="white"/>
<stop offset="0.66" stop-color="white"/>
<stop offset="1" stop-color="white"/>
</linearGradient>
<linearGradient id="paint107_linear_11_1479" x1="13.2743" y1="149.399" x2="98.0814" y2="7.18674" gradientUnits="userSpaceOnUse">
<stop stop-color="white"/>
<stop offset="0.66" stop-color="white"/>
<stop offset="1" stop-color="white"/>
</linearGradient>
<linearGradient id="paint108_linear_11_1479" x1="8.57911" y1="146.599" x2="93.385" y2="4.38588" gradientUnits="userSpaceOnUse">
<stop stop-color="white"/>
<stop offset="0.66" stop-color="white"/>
<stop offset="1" stop-color="white"/>
</linearGradient>
<linearGradient id="paint109_linear_11_1479" x1="16.2348" y1="151.179" x2="101.041" y2="8.96418" gradientUnits="userSpaceOnUse">
<stop stop-color="white"/>
<stop offset="0.66" stop-color="white"/>
<stop offset="1" stop-color="white"/>
</linearGradient>
<linearGradient id="paint110_linear_11_1479" x1="7.53483" y1="145.988" x2="92.3435" y2="3.77763" gradientUnits="userSpaceOnUse">
<stop stop-color="white"/>
<stop offset="0.66" stop-color="white"/>
<stop offset="1" stop-color="white"/>
</linearGradient>
<linearGradient id="paint111_linear_11_1479" x1="2.89729" y1="143.221" x2="87.7043" y2="1.00955" gradientUnits="userSpaceOnUse">
<stop stop-color="white"/>
<stop offset="0.66" stop-color="white"/>
<stop offset="1" stop-color="white"/>
</linearGradient>
<linearGradient id="paint112_linear_11_1479" x1="27.8565" y1="158.108" x2="112.663" y2="15.8969" gradientUnits="userSpaceOnUse">
<stop stop-color="white"/>
<stop offset="0.66" stop-color="white"/>
<stop offset="1" stop-color="white"/>
</linearGradient>
<linearGradient id="paint113_linear_11_1479" x1="12.7408" y1="149.078" x2="97.5484" y2="6.86512" gradientUnits="userSpaceOnUse">
<stop stop-color="white"/>
<stop offset="0.66" stop-color="white"/>
<stop offset="1" stop-color="white"/>
</linearGradient>
<linearGradient id="paint114_linear_11_1479" x1="11.004" y1="148.04" x2="95.8114" y2="5.82821" gradientUnits="userSpaceOnUse">
<stop stop-color="white"/>
<stop offset="0.66" stop-color="white"/>
<stop offset="1" stop-color="white"/>
</linearGradient>
<linearGradient id="paint115_linear_11_1479" x1="-1.25817" y1="140.728" x2="83.5476" y2="-1.48472" gradientUnits="userSpaceOnUse">
<stop stop-color="white"/>
<stop offset="0.66" stop-color="white"/>
<stop offset="1" stop-color="white"/>
</linearGradient>
<linearGradient id="paint116_linear_11_1479" x1="29.8048" y1="159.254" x2="114.613" y2="17.0418" gradientUnits="userSpaceOnUse">
<stop stop-color="white"/>
<stop offset="0.66" stop-color="white"/>
<stop offset="1" stop-color="white"/>
</linearGradient>
<linearGradient id="paint117_linear_11_1479" x1="25.4028" y1="156.627" x2="110.21" y2="14.4158" gradientUnits="userSpaceOnUse">
<stop stop-color="white"/>
<stop offset="0.66" stop-color="white"/>
<stop offset="1" stop-color="white"/>
</linearGradient>
<linearGradient id="paint118_linear_11_1479" x1="4.48274" y1="144.154" x2="89.2895" y2="1.9432" gradientUnits="userSpaceOnUse">
<stop stop-color="white"/>
<stop offset="0.66" stop-color="white"/>
<stop offset="1" stop-color="white"/>
</linearGradient>
<linearGradient id="paint119_linear_11_1479" x1="7.4416" y1="145.933" x2="92.2469" y2="3.71894" gradientUnits="userSpaceOnUse">
<stop stop-color="white"/>
<stop offset="0.66" stop-color="white"/>
<stop offset="1" stop-color="white"/>
</linearGradient>
<linearGradient id="paint120_linear_11_1479" x1="9.98483" y1="147.447" x2="94.7888" y2="5.23487" gradientUnits="userSpaceOnUse">
<stop stop-color="white"/>
<stop offset="0.66" stop-color="white"/>
<stop offset="1" stop-color="white"/>
</linearGradient>
<linearGradient id="paint121_linear_11_1479" x1="32.8805" y1="161.103" x2="117.684" y2="18.8934" gradientUnits="userSpaceOnUse">
<stop stop-color="white"/>
<stop offset="0.66" stop-color="white"/>
<stop offset="1" stop-color="white"/>
</linearGradient>
<linearGradient id="paint122_linear_11_1479" x1="23.4651" y1="155.491" x2="108.272" y2="13.2766" gradientUnits="userSpaceOnUse">
<stop stop-color="white"/>
<stop offset="0.66" stop-color="white"/>
<stop offset="1" stop-color="white"/>
</linearGradient>
<linearGradient id="paint123_linear_11_1479" x1="5.23262" y1="144.611" x2="90.0392" y2="2.39743" gradientUnits="userSpaceOnUse">
<stop stop-color="white"/>
<stop offset="0.66" stop-color="white"/>
<stop offset="1" stop-color="white"/>
</linearGradient>
<linearGradient id="paint124_linear_11_1479" x1="9.42373" y1="147.107" x2="94.2283" y2="4.89698" gradientUnits="userSpaceOnUse">
<stop stop-color="white"/>
<stop offset="0.66" stop-color="white"/>
<stop offset="1" stop-color="white"/>
</linearGradient>
<linearGradient id="paint125_linear_11_1479" x1="9.21714" y1="146.989" x2="94.0229" y2="4.7778" gradientUnits="userSpaceOnUse">
<stop stop-color="white"/>
<stop offset="0.66" stop-color="white"/>
<stop offset="1" stop-color="white"/>
</linearGradient>
<linearGradient id="paint126_linear_11_1479" x1="31.2651" y1="160.144" x2="116.069" y2="17.9305" gradientUnits="userSpaceOnUse">
<stop stop-color="white"/>
<stop offset="0.66" stop-color="white"/>
<stop offset="1" stop-color="white"/>
</linearGradient>
<linearGradient id="paint127_linear_11_1479" x1="15.7828" y1="150.907" x2="100.59" y2="8.69613" gradientUnits="userSpaceOnUse">
<stop stop-color="white"/>
<stop offset="0.66" stop-color="white"/>
<stop offset="1" stop-color="white"/>
</linearGradient>
<linearGradient id="paint128_linear_11_1479" x1="18.7807" y1="152.697" x2="103.59" y2="10.4858" gradientUnits="userSpaceOnUse">
<stop stop-color="white"/>
<stop offset="0.66" stop-color="white"/>
<stop offset="1" stop-color="white"/>
</linearGradient>
<linearGradient id="paint129_linear_11_1479" x1="19.5891" y1="153.177" x2="104.398" y2="10.9667" gradientUnits="userSpaceOnUse">
<stop stop-color="white"/>
<stop offset="0.66" stop-color="white"/>
<stop offset="1" stop-color="white"/>
</linearGradient>
<linearGradient id="paint130_linear_11_1479" x1="14.0228" y1="149.856" x2="98.8288" y2="7.64285" gradientUnits="userSpaceOnUse">
<stop stop-color="white"/>
<stop offset="0.66" stop-color="white"/>
<stop offset="1" stop-color="white"/>
</linearGradient>
<linearGradient id="paint131_linear_11_1479" x1="3.86055" y1="143.791" x2="88.6686" y2="1.58306" gradientUnits="userSpaceOnUse">
<stop stop-color="white"/>
<stop offset="0.66" stop-color="white"/>
<stop offset="1" stop-color="white"/>
</linearGradient>
<linearGradient id="paint132_linear_11_1479" x1="20.8449" y1="153.904" x2="105.652" y2="11.6931" gradientUnits="userSpaceOnUse">
<stop stop-color="white"/>
<stop offset="0.66" stop-color="white"/>
<stop offset="1" stop-color="white"/>
</linearGradient>
<linearGradient id="paint133_linear_11_1479" x1="24.3754" y1="156.01" x2="109.183" y2="13.7977" gradientUnits="userSpaceOnUse">
<stop stop-color="white"/>
<stop offset="0.66" stop-color="white"/>
<stop offset="1" stop-color="white"/>
</linearGradient>
<linearGradient id="paint134_linear_11_1479" x1="22.1168" y1="154.666" x2="106.924" y2="12.4559" gradientUnits="userSpaceOnUse">
<stop stop-color="white"/>
<stop offset="0.66" stop-color="white"/>
<stop offset="1" stop-color="white"/>
</linearGradient>
<linearGradient id="paint135_linear_11_1479" x1="19.2948" y1="153.05" x2="103.455" y2="10.459" gradientUnits="userSpaceOnUse">
<stop stop-color="white"/>
<stop offset="0.66" stop-color="white"/>
<stop offset="1" stop-color="white"/>
</linearGradient>
<linearGradient id="paint136_linear_11_1479" x1="14.879" y1="150.36" x2="99.6851" y2="8.14901" gradientUnits="userSpaceOnUse">
<stop stop-color="white"/>
<stop offset="0.66" stop-color="white"/>
<stop offset="1" stop-color="white"/>
</linearGradient>
<linearGradient id="paint137_linear_11_1479" x1="13.811" y1="149.723" x2="98.6168" y2="7.51177" gradientUnits="userSpaceOnUse">
<stop stop-color="white"/>
<stop offset="0.66" stop-color="white"/>
<stop offset="1" stop-color="white"/>
</linearGradient>
<linearGradient id="paint138_linear_11_1479" x1="21.8003" y1="154.464" x2="106.61" y2="12.2533" gradientUnits="userSpaceOnUse">
<stop stop-color="white"/>
<stop offset="0.66" stop-color="white"/>
<stop offset="1" stop-color="white"/>
</linearGradient>
<linearGradient id="paint139_linear_11_1479" x1="20.8121" y1="153.885" x2="105.618" y2="11.6735" gradientUnits="userSpaceOnUse">
<stop stop-color="white"/>
<stop offset="0.66" stop-color="white"/>
<stop offset="1" stop-color="white"/>
</linearGradient>
<linearGradient id="paint140_linear_11_1479" x1="18.7338" y1="152.653" x2="103.54" y2="10.4416" gradientUnits="userSpaceOnUse">
<stop stop-color="white"/>
<stop offset="0.66" stop-color="white"/>
<stop offset="1" stop-color="white"/>
</linearGradient>
<linearGradient id="paint141_linear_11_1479" x1="17.5392" y1="151.928" x2="102.35" y2="9.71373" gradientUnits="userSpaceOnUse">
<stop stop-color="white"/>
<stop offset="0.66" stop-color="white"/>
<stop offset="1" stop-color="white"/>
</linearGradient>
<linearGradient id="paint142_linear_11_1479" x1="12.9536" y1="149.191" x2="97.7597" y2="6.97812" gradientUnits="userSpaceOnUse">
<stop stop-color="white"/>
<stop offset="0.66" stop-color="white"/>
<stop offset="1" stop-color="white"/>
</linearGradient>
<linearGradient id="paint143_linear_11_1479" x1="16.619" y1="151.38" x2="101.426" y2="9.16697" gradientUnits="userSpaceOnUse">
<stop stop-color="white"/>
<stop offset="0.66" stop-color="white"/>
<stop offset="1" stop-color="white"/>
</linearGradient>
<linearGradient id="paint144_linear_11_1479" x1="12.1366" y1="148.701" x2="96.9407" y2="6.49019" gradientUnits="userSpaceOnUse">
<stop stop-color="white"/>
<stop offset="0.66" stop-color="white"/>
<stop offset="1" stop-color="white"/>
</linearGradient>
<linearGradient id="paint145_linear_11_1479" x1="22.9415" y1="155.148" x2="107.75" y2="12.9338" gradientUnits="userSpaceOnUse">
<stop stop-color="white"/>
<stop offset="0.66" stop-color="white"/>
<stop offset="1" stop-color="white"/>
</linearGradient>
<linearGradient id="paint146_linear_11_1479" x1="24.1462" y1="155.862" x2="108.95" y2="13.6486" gradientUnits="userSpaceOnUse">
<stop stop-color="white"/>
<stop offset="0.66" stop-color="white"/>
<stop offset="1" stop-color="white"/>
</linearGradient>
<linearGradient id="paint147_linear_11_1479" x1="27.2513" y1="157.713" x2="112.058" y2="15.5023" gradientUnits="userSpaceOnUse">
<stop stop-color="white"/>
<stop offset="0.66" stop-color="white"/>
<stop offset="1" stop-color="white"/>
</linearGradient>
<linearGradient id="paint148_linear_11_1479" x1="27.8344" y1="158.081" x2="112.641" y2="15.8708" gradientUnits="userSpaceOnUse">
<stop stop-color="white"/>
<stop offset="0.66" stop-color="white"/>
<stop offset="1" stop-color="white"/>
</linearGradient>
<linearGradient id="paint149_linear_11_1479" x1="30.4118" y1="159.614" x2="115.217" y2="17.4012" gradientUnits="userSpaceOnUse">
<stop stop-color="white"/>
<stop offset="0.66" stop-color="white"/>
<stop offset="1" stop-color="white"/>
</linearGradient>
<linearGradient id="paint150_linear_11_1479" x1="29.9121" y1="159.314" x2="114.719" y2="17.1033" gradientUnits="userSpaceOnUse">
<stop stop-color="white"/>
<stop offset="0.66" stop-color="white"/>
<stop offset="1" stop-color="white"/>
</linearGradient>
<linearGradient id="paint151_linear_11_1479" x1="28.7556" y1="158.624" x2="113.562" y2="16.4117" gradientUnits="userSpaceOnUse">
<stop stop-color="white"/>
<stop offset="0.66" stop-color="white"/>
<stop offset="1" stop-color="white"/>
</linearGradient>
<linearGradient id="paint152_linear_11_1479" x1="19.7561" y1="153.259" x2="104.565" y2="11.046" gradientUnits="userSpaceOnUse">
<stop stop-color="white"/>
<stop offset="0.66" stop-color="white"/>
<stop offset="1" stop-color="white"/>
</linearGradient>
<linearGradient id="paint153_linear_11_1479" x1="32.5721" y1="160.901" x2="117.382" y2="18.6886" gradientUnits="userSpaceOnUse">
<stop stop-color="white"/>
<stop offset="0.66" stop-color="white"/>
<stop offset="1" stop-color="white"/>
</linearGradient>
<linearGradient id="paint154_linear_11_1479" x1="19.3908" y1="152.688" x2="104.718" y2="10.7828" gradientUnits="userSpaceOnUse">
<stop stop-color="white"/>
<stop offset="0.66" stop-color="white"/>
<stop offset="1" stop-color="white"/>
</linearGradient>
<linearGradient id="paint155_linear_11_1479" x1="30.3377" y1="159.435" x2="114.098" y2="16.6132" gradientUnits="userSpaceOnUse">
<stop stop-color="white"/>
<stop offset="0.66" stop-color="white"/>
<stop offset="1" stop-color="white"/>
</linearGradient>
<linearGradient id="paint156_linear_11_1479" x1="19.3849" y1="153.043" x2="104.193" y2="10.8299" gradientUnits="userSpaceOnUse">
<stop stop-color="white"/>
<stop offset="0.66" stop-color="white"/>
<stop offset="1" stop-color="white"/>
</linearGradient>
<linearGradient id="paint157_linear_11_1479" x1="19.83" y1="153.301" x2="104.635" y2="11.0881" gradientUnits="userSpaceOnUse">
<stop stop-color="white"/>
<stop offset="0.66" stop-color="white"/>
<stop offset="1" stop-color="white"/>
</linearGradient>
<linearGradient id="paint158_linear_11_1479" x1="20.5726" y1="153.742" x2="105.377" y2="11.5318" gradientUnits="userSpaceOnUse">
<stop stop-color="white"/>
<stop offset="0.66" stop-color="white"/>
<stop offset="1" stop-color="white"/>
</linearGradient>
<linearGradient id="paint159_linear_11_1479" x1="22.4131" y1="154.842" x2="107.218" y2="12.6305" gradientUnits="userSpaceOnUse">
<stop stop-color="white"/>
<stop offset="0.66" stop-color="white"/>
<stop offset="1" stop-color="white"/>
</linearGradient>
<linearGradient id="paint160_linear_11_1479" x1="18.8668" y1="152.728" x2="103.671" y2="10.5148" gradientUnits="userSpaceOnUse">
<stop stop-color="white"/>
<stop offset="0.66" stop-color="white"/>
<stop offset="1" stop-color="white"/>
</linearGradient>
<linearGradient id="paint161_linear_11_1479" x1="19.3759" y1="153.027" x2="104.183" y2="10.8161" gradientUnits="userSpaceOnUse">
<stop stop-color="white"/>
<stop offset="0.66" stop-color="white"/>
<stop offset="1" stop-color="white"/>
</linearGradient>
<linearGradient id="paint162_linear_11_1479" x1="22.9618" y1="155.164" x2="107.768" y2="12.9526" gradientUnits="userSpaceOnUse">
<stop stop-color="white"/>
<stop offset="0.66" stop-color="white"/>
<stop offset="1" stop-color="white"/>
</linearGradient>
<linearGradient id="paint163_linear_11_1479" x1="24.464" y1="156.064" x2="109.271" y2="13.8524" gradientUnits="userSpaceOnUse">
<stop stop-color="white"/>
<stop offset="0.66" stop-color="white"/>
<stop offset="1" stop-color="white"/>
</linearGradient>
<linearGradient id="paint164_linear_11_1479" x1="16.4595" y1="151.292" x2="101.263" y2="9.07784" gradientUnits="userSpaceOnUse">
<stop stop-color="white"/>
<stop offset="0.66" stop-color="white"/>
<stop offset="1" stop-color="white"/>
</linearGradient>
<linearGradient id="paint165_linear_11_1479" x1="15.3218" y1="150.618" x2="100.129" y2="8.40931" gradientUnits="userSpaceOnUse">
<stop stop-color="white"/>
<stop offset="0.66" stop-color="white"/>
<stop offset="1" stop-color="white"/>
</linearGradient>
<linearGradient id="paint166_linear_11_1479" x1="11.2538" y1="148.19" x2="96.0602" y2="5.97429" gradientUnits="userSpaceOnUse">
<stop stop-color="white"/>
<stop offset="0.66" stop-color="white"/>
<stop offset="1" stop-color="white"/>
</linearGradient>
<linearGradient id="paint167_linear_11_1479" x1="17.1881" y1="151.272" x2="101.372" y2="8.69703" gradientUnits="userSpaceOnUse">
<stop stop-color="white"/>
<stop offset="0.66" stop-color="white"/>
<stop offset="1" stop-color="white"/>
</linearGradient>
<linearGradient id="paint168_linear_11_1479" x1="28.5352" y1="158.493" x2="113.341" y2="16.2816" gradientUnits="userSpaceOnUse">
<stop stop-color="white"/>
<stop offset="0.66" stop-color="white"/>
<stop offset="1" stop-color="white"/>
</linearGradient>
<linearGradient id="paint169_linear_11_1479" x1="13.4235" y1="149.482" x2="98.2304" y2="7.27032" gradientUnits="userSpaceOnUse">
<stop stop-color="white"/>
<stop offset="0.66" stop-color="white"/>
<stop offset="1" stop-color="white"/>
</linearGradient>
<linearGradient id="paint170_linear_11_1479" x1="14.9732" y1="150.171" x2="100.051" y2="8.12116" gradientUnits="userSpaceOnUse">
<stop stop-color="white"/>
<stop offset="0.66" stop-color="white"/>
<stop offset="1" stop-color="white"/>
</linearGradient>
<linearGradient id="paint171_linear_11_1479" x1="32.77" y1="161.02" x2="117.58" y2="18.8068" gradientUnits="userSpaceOnUse">
<stop stop-color="white"/>
<stop offset="0.66" stop-color="white"/>
<stop offset="1" stop-color="white"/>
</linearGradient>
<linearGradient id="paint172_linear_11_1479" x1="18.0904" y1="152.269" x2="102.897" y2="10.0532" gradientUnits="userSpaceOnUse">
<stop stop-color="white"/>
<stop offset="0.66" stop-color="white"/>
<stop offset="1" stop-color="white"/>
</linearGradient>
<linearGradient id="paint173_linear_11_1479" x1="25.8208" y1="156.876" x2="110.627" y2="14.6629" gradientUnits="userSpaceOnUse">
<stop stop-color="white"/>
<stop offset="0.66" stop-color="white"/>
<stop offset="1" stop-color="white"/>
</linearGradient>
<linearGradient id="paint174_linear_11_1479" x1="24.4975" y1="156.085" x2="109.304" y2="13.8736" gradientUnits="userSpaceOnUse">
<stop stop-color="white"/>
<stop offset="0.66" stop-color="white"/>
<stop offset="1" stop-color="white"/>
</linearGradient>
<linearGradient id="paint175_linear_11_1479" x1="11.5624" y1="148.388" x2="96.3683" y2="6.17475" gradientUnits="userSpaceOnUse">
<stop stop-color="white"/>
<stop offset="0.66" stop-color="white"/>
<stop offset="1" stop-color="white"/>
</linearGradient>
<linearGradient id="paint176_linear_11_1479" x1="24.2503" y1="155.939" x2="109.054" y2="13.7271" gradientUnits="userSpaceOnUse">
<stop stop-color="white"/>
<stop offset="0.66" stop-color="white"/>
<stop offset="1" stop-color="white"/>
</linearGradient>
<linearGradient id="paint177_linear_11_1479" x1="28.8829" y1="158.706" x2="113.695" y2="16.4923" gradientUnits="userSpaceOnUse">
<stop stop-color="white"/>
<stop offset="0.66" stop-color="white"/>
<stop offset="1" stop-color="white"/>
</linearGradient>
<linearGradient id="paint178_linear_11_1479" x1="30.5798" y1="159.715" x2="115.389" y2="17.5025" gradientUnits="userSpaceOnUse">
<stop stop-color="white"/>
<stop offset="0.66" stop-color="white"/>
<stop offset="1" stop-color="white"/>
</linearGradient>
<linearGradient id="paint179_linear_11_1479" x1="10.9278" y1="147.995" x2="95.7342" y2="5.7819" gradientUnits="userSpaceOnUse">
<stop stop-color="white"/>
<stop offset="0.66" stop-color="white"/>
<stop offset="1" stop-color="white"/>
</linearGradient>
<linearGradient id="paint180_linear_11_1479" x1="12.6537" y1="149.027" x2="97.4577" y2="6.80967" gradientUnits="userSpaceOnUse">
<stop stop-color="white"/>
<stop offset="0.66" stop-color="white"/>
<stop offset="1" stop-color="white"/>
</linearGradient>
<linearGradient id="paint181_linear_11_1479" x1="9.56023" y1="147.179" x2="94.3642" y2="4.96648" gradientUnits="userSpaceOnUse">
<stop stop-color="white"/>
<stop offset="0.66" stop-color="white"/>
<stop offset="1" stop-color="white"/>
</linearGradient>
<linearGradient id="paint182_linear_11_1479" x1="11.7412" y1="148.498" x2="96.5468" y2="6.28432" gradientUnits="userSpaceOnUse">
<stop stop-color="white"/>
<stop offset="0.66" stop-color="white"/>
<stop offset="1" stop-color="white"/>
</linearGradient>
<linearGradient id="paint183_linear_11_1479" x1="26.4345" y1="157.258" x2="111.242" y2="15.0447" gradientUnits="userSpaceOnUse">
<stop stop-color="white"/>
<stop offset="0.66" stop-color="white"/>
<stop offset="1" stop-color="white"/>
</linearGradient>
</defs>
</svg>
