<svg width="156" height="97" viewBox="0 0 156 97" fill="none" xmlns="http://www.w3.org/2000/svg">
<path d="M98.9787 88.6175L98.835 88.5869C93.5739 87.4742 88.5915 85.3117 84.1855 82.2288C79.9103 79.2507 76.2559 75.4682 73.4275 71.0925C70.5792 66.7286 68.6102 61.8507 67.6303 56.7325C66.5992 51.4309 66.6556 45.9752 67.7963 40.6962C68.903 35.4091 71.0711 30.4015 74.1695 25.9767C77.1462 21.7003 80.9289 18.0457 85.3058 15.2187C89.6684 12.3693 94.546 10.4001 99.664 9.42108C104.936 8.39477 110.361 8.44435 115.613 9.56675L115.792 9.60478C121.045 10.7159 126.021 12.877 130.418 15.9581C134.695 18.9349 138.349 22.7175 141.176 27.0944C144.025 31.4575 145.995 36.3347 146.976 41.4522C148.007 46.7547 147.951 52.2112 146.813 57.4917C145.705 62.7779 143.537 67.7844 140.439 72.2085C137.461 76.4838 133.678 80.138 129.301 82.9661C124.939 85.8147 120.061 87.784 114.944 88.764C109.667 89.7909 104.236 89.7411 98.9787 88.6175ZM114.939 13.1774C105.416 11.182 95.4904 13.0369 87.3302 18.3362C79.1701 23.6355 73.4384 31.9483 71.388 41.4597C69.3913 50.9829 71.2452 60.9093 76.5446 69.0698C81.8441 77.2302 90.1583 82.9612 99.6702 85.0106C109.194 87.0085 119.12 85.1547 127.281 79.855C135.442 74.5554 141.173 66.2409 143.221 56.7283C145.218 47.2052 143.364 37.2787 138.065 29.1183C132.765 20.9578 124.451 15.2267 114.939 13.1774Z" fill="white"/>
<path d="M111.477 23.7173C111.369 23.7044 111.024 23.6663 110.715 23.6259C103.566 22.7672 96.1914 25.1549 90.7938 30.0866C87.7891 32.8281 85.5274 36.1814 84.1415 39.9479C83.6553 41.2621 83.546 41.6576 83.1551 43.4967C82.7642 45.3357 82.7032 45.7414 82.6128 47.1398C81.9839 56.6973 86.9272 65.8905 95.2639 70.6793C96.7569 71.5364 98.3716 72.2479 100.248 72.8688C100.979 73.1098 104.213 73.7973 104.979 73.8743C108.373 74.2124 111.357 73.9891 114.429 73.1638C114.9 73.0369 114.994 72.9964 114.946 72.9359C114.914 72.8986 113.62 70.086 112.071 66.6896L109.256 60.5166L105.864 52.1426C103.997 47.5384 102.457 43.7703 102.438 43.7662C102.419 43.7573 101.708 47.0065 100.854 50.9769C99.3615 57.9291 99.2973 58.2081 99.1755 58.3537C98.9997 58.5636 98.8826 58.6396 98.6573 58.7027C98.4863 58.7471 98.3481 58.7328 97.6192 58.5779L96.784 58.4003L96.5917 58.2132C96.4663 58.0907 96.3858 57.9475 96.3431 57.7921L96.2879 57.5533L98.3547 47.8776L100.427 38.1982L100.617 38.0418C100.716 37.9568 100.908 37.8614 101.037 37.8233C101.255 37.7688 101.334 37.7755 102.17 37.9531C103.154 38.1624 103.31 38.2359 103.507 38.5702C103.563 38.6628 105.384 43.2676 107.557 48.8095C109.729 54.3514 112.702 61.9199 114.162 65.6356L116.813 72.3892L117.039 72.301C119.034 71.5344 121.232 70.3066 123.059 68.9291C126.944 66.0068 129.887 62.0616 131.554 57.5426C132.04 56.2283 132.149 55.8329 132.54 53.9938C132.931 52.1548 132.992 51.749 133.083 50.3507C133.712 40.7932 128.768 31.6 120.432 26.8111C118.962 25.964 117.357 25.2545 115.519 24.642C115.066 24.4952 111.886 23.7639 111.477 23.7173ZM118.412 40.8001C118.619 40.9652 118.76 41.2272 118.778 41.4733C118.79 41.6069 118.229 44.2928 116.934 50.3386L115.075 59.0141L114.043 56.343L113.007 53.6709L114.348 47.3623C115.215 43.2836 115.721 40.995 115.774 40.8902C115.909 40.6363 116.123 40.4599 116.381 40.3836C116.601 40.3243 116.675 40.3301 117.433 40.4912C118.147 40.643 118.271 40.6793 118.412 40.8001Z" stroke="white" stroke-width="1.5"/>
<path d="M57.103 88.4279L56.9576 88.459C51.6397 89.6012 46.1461 89.6589 40.8054 88.6288C35.6286 87.6416 30.6935 85.6555 26.2766 82.7807C21.8461 79.9251 18.0157 76.2321 14.9997 71.9092C11.8609 67.4381 9.66287 62.3761 8.53913 57.0301C7.38051 51.6906 7.31761 46.1715 8.35419 40.807C9.33966 35.6297 11.3259 30.6943 14.2023 26.2782C17.0563 21.8472 20.749 18.0167 25.072 15.0017C29.5175 11.8796 34.5484 9.68786 39.862 8.55829L40.043 8.51961C45.3532 7.37909 50.8396 7.32298 56.1721 8.35476C61.3494 9.34023 66.2848 11.3265 70.7009 14.2029C75.1314 17.0577 78.962 20.7497 81.979 25.0713C85.1179 29.5435 87.3171 34.6058 88.4436 39.9523C89.6011 45.2912 89.6635 50.8094 88.6271 56.173C87.6394 61.3501 85.6527 66.2852 82.7773 70.7022C79.9228 75.1324 76.2306 78.9627 71.9084 81.9785C67.458 85.1035 62.4222 87.2973 57.103 88.4279ZM40.7287 12.171C31.1105 14.2557 22.7087 20.0626 17.3578 28.3224C12.007 36.5823 10.142 46.6238 12.1712 56.2538C14.2548 65.8728 20.0611 74.2759 28.3212 79.6269C36.5814 84.978 46.6238 86.8419 56.254 84.8115C65.8735 82.7289 74.2769 76.9226 79.6282 68.6622C84.9795 60.4017 86.8434 50.3589 84.8116 40.7286C82.7281 31.1097 76.9218 22.7066 68.6616 17.3556C60.4015 12.0045 50.359 10.1405 40.7287 12.171Z" fill="white"/>
<mask id="mask0_3_1188" style="mask-type:alpha" maskUnits="userSpaceOnUse" x="19" y="20" width="58" height="56">
<path d="M47.7018 21.1249C47.3078 21.2092 46.9595 21.3692 46.6452 21.5506C47.4619 21.8615 47.9872 22.3918 48.333 23.046C48.3676 23.1385 48.4102 23.2008 48.4447 23.2934C48.4764 23.3723 48.5079 23.4512 48.5254 23.5332C48.8385 24.7227 48.4907 24.9541 48.3751 25.7212C48.1626 26.7233 48.4853 27.6823 49.147 28.369C49.2096 28.4555 49.2893 28.5527 49.3801 28.6333C48.107 25.2931 50.9649 24.1397 51.283 22.9438C51.1239 21.9927 50.1877 21.536 49.4612 21.2344C48.7803 21.0087 48.2082 21.0167 47.7018 21.1249ZM52.3422 20.947C52.353 21.2731 52.3777 21.1821 52.3988 21.3489C52.408 21.4612 52.4371 21.5978 52.4465 21.71C52.4417 21.8252 52.4369 21.9405 52.418 22.0587C52.4133 22.174 52.3944 22.2922 52.3756 22.4105C52.3426 22.5317 52.3208 22.6363 52.2879 22.7576C52.2573 22.8212 52.2408 22.8818 52.2104 22.9455C52.191 22.9925 52.1716 23.0394 52.1522 23.0864C52.1023 23.1971 52.0523 23.3076 51.9995 23.4046C51.9326 23.5046 51.8827 23.6151 51.7987 23.7045C51.8017 23.7182 51.8017 23.7182 51.8017 23.7182C51.7319 23.8045 51.665 23.9045 51.581 23.9938C51.3323 24.2754 51.0297 24.5114 50.7639 24.7824C50.68 24.8717 50.5931 24.9473 50.5263 25.0474C50.4424 25.1366 50.3725 25.2229 50.3057 25.323C50.2247 25.4259 50.1718 25.5229 50.1079 25.6365C50.055 25.7334 49.991 25.847 49.9551 25.9547C49.9053 26.0653 49.8553 26.1759 49.8195 26.2835C49.7865 26.4048 49.7647 26.5094 49.7318 26.6306C49.713 26.7488 49.6912 26.8534 49.6864 26.9687C49.6704 27.1006 49.6656 27.2158 49.6608 27.3311C49.6584 27.3887 49.673 27.457 49.6707 27.5146C49.6682 27.5723 49.6799 27.6268 49.6776 27.6845C49.7009 27.7937 49.7131 27.9196 49.7365 28.0288C49.754 28.1107 49.7715 28.1927 49.8031 28.2716C49.8264 28.3808 49.8638 28.4871 49.9182 28.6039C49.9557 28.7101 50.0071 28.8134 50.0586 28.9166C50.1241 29.0168 50.1756 29.12 50.2412 29.2202C50.2839 29.2825 50.3407 29.3417 50.3806 29.3903L46.8848 28.8668C46.304 28.8338 45.7402 28.8115 45.1652 28.806C44.8551 28.8008 44.5451 28.7957 44.235 28.7906C43.3558 28.8072 42.4713 28.8677 41.5956 28.9692C41.5674 28.9752 41.5504 28.9646 41.5223 28.9706C40.6606 29.069 39.8217 29.2055 38.9776 29.3859C38.3585 29.5183 37.7452 29.6779 37.149 29.8482C36.3024 30.0862 35.4675 30.3789 34.6384 30.6988C34.4333 30.7712 34.231 30.8573 34.0286 30.9434C33.61 31.1186 33.2083 31.3043 32.8208 31.4871C32.6215 31.5869 32.422 31.6866 32.2227 31.7862C32.0291 31.9133 31.8526 32.051 31.6731 32.175C31.533 32.2763 31.3927 32.3777 31.2526 32.479C31.2274 32.4988 31.1992 32.5048 31.1881 32.5214C31.062 32.6197 30.947 32.7014 30.835 32.7968C30.7957 32.8194 30.7705 32.839 30.7453 32.8587C30.6051 32.9601 30.4678 33.0751 30.3558 33.1704C30.2661 33.2324 30.1792 33.3081 30.1036 33.3671C30.0672 33.4034 30.0168 33.4428 29.9916 33.4624C29.8795 33.5577 29.7675 33.6531 29.6695 33.7454C29.5574 33.8408 29.4595 33.9331 29.3756 34.0224C29.2917 34.1117 29.2049 34.1874 29.1351 34.2737C29.1239 34.2904 29.1098 34.2934 29.0987 34.31C29.026 34.3827 28.9421 34.472 28.8722 34.5583C28.8722 34.5583 28.861 34.575 28.85 34.5916C28.7913 34.6613 28.7326 34.7309 28.6739 34.8006C28.6487 34.8202 28.6263 34.8536 28.6012 34.8732C28.5425 34.9429 28.4867 35.0262 28.428 35.0958C28.4198 35.1262 28.3947 35.1458 28.3834 35.1625C28.3166 35.2625 28.2467 35.3488 28.1798 35.4487C28.1657 35.4517 28.1686 35.4655 28.1576 35.4821C28.0877 35.5684 28.0208 35.6683 27.9538 35.7683C27.9427 35.785 27.9456 35.7986 27.9316 35.8016C27.8758 35.8849 27.82 35.9682 27.7672 36.0652C27.745 36.0984 27.7086 36.1348 27.6863 36.1682C27.6334 36.2651 27.5665 36.365 27.4996 36.4651C27.4913 36.4953 27.4662 36.515 27.4579 36.5453C27.3687 36.6786 27.2935 36.8089 27.2043 36.9422C27.1932 36.9589 27.182 36.9755 27.1709 36.9921C26.9954 37.2724 26.8057 37.5556 26.5963 37.8146C26.3897 38.0872 26.1662 38.3491 25.9368 38.5837C25.6963 38.835 25.464 39.056 25.2035 39.283C24.9542 39.4933 24.6879 39.693 24.4047 39.8821C24.1355 40.0681 23.8493 40.2435 23.5602 40.4052C22.9955 40.6544 22.4402 41.0158 21.9283 41.168C21.8158 41.1921 21.695 41.2465 21.5854 41.2842C21.4645 41.3386 21.3578 41.39 21.2511 41.4413C21.1473 41.5064 21.0435 41.5713 20.9397 41.6364C20.8359 41.7014 20.735 41.7801 20.6341 41.8587C20.5503 41.948 20.4494 42.0268 20.3654 42.116C20.2816 42.2053 20.2006 42.3083 20.1337 42.4083C20.0498 42.4976 19.9717 42.6142 19.9048 42.7142C19.8408 42.8278 19.7739 42.9278 19.724 43.0384C19.677 43.1627 19.613 43.2763 19.5801 43.3976C19.5301 43.5082 19.4831 43.6324 19.4502 43.7537C19.4201 43.8886 19.3873 44.0098 19.3713 44.1418C19.3524 44.2601 19.3365 44.3919 19.3205 44.5239C19.3158 44.639 19.3109 44.7543 19.3203 44.8665C19.3232 44.8802 19.312 44.8969 19.315 44.9106C19.3131 45.0395 19.3481 45.2033 19.3515 45.2883C19.3578 45.3868 19.3613 45.4718 19.3817 45.5673C19.3934 45.622 19.408 45.6902 19.4338 45.7418C19.4683 45.8344 19.4999 45.9133 19.5455 45.9892C19.5912 46.0651 19.6368 46.1411 19.6966 46.2139C19.6995 46.2276 19.6995 46.2276 19.6995 46.2276C19.7592 46.3005 19.833 46.3704 19.9067 46.4403C19.9805 46.5102 20.0543 46.5801 20.1422 46.647C20.2271 46.7003 20.329 46.7641 20.4281 46.8143C20.53 46.8782 20.629 46.9284 20.7421 46.9757C21.1411 47.1902 21.2458 47.2677 21.7287 47.393C21.8079 47.4189 21.884 47.4312 21.9772 47.4541C21.9912 47.4511 22.0083 47.4618 22.0223 47.4588C22.0282 47.486 22.0311 47.4997 22.051 47.5241C22.0884 47.6303 22.1399 47.7335 22.1914 47.8367C22.2458 47.9536 22.3114 48.0538 22.374 48.1404C22.4338 48.2132 22.4793 48.2891 22.5391 48.362C22.559 48.3863 22.5789 48.4107 22.5959 48.4213C22.6755 48.5185 22.7522 48.6021 22.8289 48.6856C22.9197 48.7661 23.0105 48.8467 23.1013 48.9272C23.1891 48.9942 23.2939 49.0716 23.3959 49.1355C23.4978 49.1994 23.5968 49.2496 23.7128 49.3105C23.7128 49.3105 23.7298 49.3212 23.7439 49.3181C23.8428 49.3684 23.9419 49.4186 24.038 49.4552C24.151 49.5025 24.2612 49.536 24.3855 49.5666C24.4956 49.6001 24.6198 49.6307 24.7412 49.6476C24.8343 49.6705 24.9386 49.6768 25.043 49.683C25.06 49.6937 25.074 49.6907 25.1051 49.6983C25.1643 49.7 25.2375 49.6985 25.2967 49.7002C25.4121 50.4465 25.5469 51.1459 25.712 51.3676C25.897 51.6136 26.338 50.6484 26.7528 49.5603C26.8698 50.5204 27.0499 51.6384 27.2606 51.9361C27.4883 52.2444 28.1049 50.999 28.5855 49.6683C38.0823 45.297 48.6153 50.0419 51.5914 59.286C51.0934 57.8504 49.047 57.4312 48.2326 57.8194C48.0264 58.92 47.586 60.3705 46.6046 61.4226C46.5104 60.5005 46.2698 59.581 45.8802 58.722C45.8391 60.0443 45.4851 61.3478 44.871 62.5356C43.5548 62.9168 42.0839 62.5744 41.1791 61.7827C41.114 61.7537 41.0825 61.6748 41.0286 61.6293C40.9659 61.5427 40.9033 61.4561 40.8548 61.3666C40.7921 61.28 40.7436 61.1905 40.7091 61.0979C40.6745 61.0053 40.6541 60.9097 40.6308 60.8005C40.6162 60.7322 40.6016 60.6639 40.587 60.5957C40.5807 60.4971 40.5884 60.3955 40.596 60.2939C40.6037 60.1924 40.6114 60.0907 40.6332 59.9861C40.6691 59.8785 40.6909 59.7739 40.7409 59.6633C40.8399 58.9568 40.7261 58.4243 40.2228 58.2035C40.1268 58.1669 40.0336 58.144 39.9263 58.1241C39.8671 58.1224 39.791 58.1102 39.7318 58.1085C39.6866 58.1039 39.6556 58.0963 39.6104 58.0916C39.506 58.0853 39.4018 58.0791 39.3003 58.0865C39.196 58.0803 39.0946 58.0876 38.9961 58.1087C38.8948 58.116 38.7793 58.1265 38.6808 58.1476C38.6105 58.1626 38.543 58.1913 38.4727 58.2063C38.3601 58.2304 38.2646 58.2651 38.1719 58.3134C38.0763 58.3482 37.9808 58.3829 37.8881 58.4312C37.7954 58.4795 37.7028 58.528 37.6131 58.59C37.5234 58.652 37.4477 58.711 37.3579 58.773C37.2822 58.832 37.2096 58.9047 37.1198 58.9667C34.2851 61.7427 37.2797 66.1855 39.8174 67.1138C39.0053 67.4444 38.185 67.8054 37.9838 68.034C37.9725 68.0506 37.9614 68.0673 37.9614 68.0673C38.6423 68.293 39.3397 68.458 40.0563 68.5761C41.0181 68.6704 42.0303 68.7254 42.4757 68.7444L42.4786 68.7581C43.696 68.7406 44.8954 68.5699 46.0767 68.246C52.2191 66.4907 56.343 60.7977 55.9758 54.5368C56.0302 54.6537 56.0817 54.7569 56.1361 54.8738C56.2309 55.1106 56.3426 55.358 56.4262 55.6114C56.4262 55.6114 56.4262 55.6114 56.4292 55.6251C56.4835 55.7419 56.5238 55.8618 56.5613 55.968C56.5672 55.9953 56.5701 56.0089 56.573 56.0226C56.6133 56.1425 56.6536 56.2624 56.6769 56.3717C56.7231 56.5189 56.7693 56.666 56.8014 56.8162C56.816 56.8845 56.8306 56.9528 56.8481 57.0347C56.8627 57.103 56.8942 57.1819 56.9088 57.2501C56.9263 57.332 56.9298 57.4169 56.9473 57.4989C56.9619 57.5672 56.9765 57.6354 56.9881 57.6901C57.0086 57.7857 57.012 57.8706 57.0324 57.9661C57.0441 58.0208 57.0558 58.0754 57.0562 58.1467C57.0766 58.2423 57.083 58.3408 57.1063 58.45C57.101 58.4941 57.1098 58.535 57.1185 58.576C57.1278 58.6882 57.1341 58.7868 57.1434 58.899C57.1522 58.94 57.1609 58.981 57.1556 59.025C57.1706 59.1645 57.1688 59.2934 57.184 59.433L57.1869 59.4466L57.1898 59.4603C57.1879 59.5892 57.1889 59.7318 57.1871 59.8606C57.19 59.8743 57.1929 59.888 57.1958 59.9016C57.1939 60.0305 57.192 60.1594 57.1902 60.2883C57.1931 60.302 57.1848 60.3323 57.1878 60.3459C57.186 60.4749 57.184 60.6038 57.1681 60.7356C57.1711 60.7493 57.174 60.763 57.1769 60.7766C57.1638 60.9222 57.1479 61.0541 57.146 61.183C57.1348 61.1996 57.1378 61.2133 57.1378 61.2133C57.1247 61.3588 57.1117 61.5044 57.0986 61.65C57.0715 61.7985 57.0557 61.9305 57.0285 62.079C57.0014 62.2276 56.9884 62.3732 56.9584 62.508C56.9312 62.6566 56.9013 62.7915 56.8742 62.9401L56.8601 62.9431C56.8301 63.078 56.803 63.2266 56.7589 63.3646C56.7536 63.4085 56.7454 63.4388 56.7371 63.4691C56.7259 63.4858 56.7288 63.4995 56.7178 63.5161C56.1855 65.5002 55.1704 67.3591 53.7447 68.9488C53.6468 69.0412 53.5517 69.1472 53.4567 69.2531C53.4344 69.2865 53.395 69.3091 53.3727 69.3424C53.2888 69.4318 53.205 69.5211 53.107 69.6135L53.1667 69.6863L53.1808 69.6833C53.3719 69.6139 53.5631 69.5445 53.7542 69.4751L53.7683 69.4721C54.1224 69.3393 54.4737 69.1928 54.8248 69.0463C54.9204 69.0117 55.0272 68.9603 55.1198 68.9119C55.1872 68.8832 55.2406 68.8576 55.3081 68.8288C55.4036 68.7941 55.4963 68.7458 55.5919 68.7111C55.6704 68.6658 55.7519 68.634 55.8305 68.5887C57.1674 67.9603 58.4358 67.218 59.6305 66.4059C58.0267 69.8469 55.5406 72.8768 52.3728 75.1958C53.9675 74.7408 55.5301 74.1355 56.9984 73.3648C62.3212 70.5282 66.3 65.8085 68.0909 60.2143C68.1882 63.4917 67.5358 66.7723 66.1826 69.8028C67.3606 68.6372 68.3969 67.3592 69.2914 65.9687C71.7601 62.1001 72.9616 57.6028 72.7342 53.0968C73.6737 55.1519 74.29 57.3475 74.5488 59.5909C81.7684 43.6702 69.4077 31.4061 64.7079 28.4842C64.6879 28.4599 64.671 28.4493 64.6652 28.422C64.6539 28.4386 64.6539 28.4386 64.6568 28.4522C64.6539 28.4386 64.6539 28.4386 64.6369 28.428C64.672 28.5918 64.6929 28.7587 64.7139 28.9255C64.7388 29.2486 64.7608 29.558 64.7687 29.8704C64.7626 30.1859 64.7424 30.5043 64.7222 30.8227C64.6849 31.1305 64.6366 31.4549 64.5712 31.7688C64.503 32.0688 64.4236 32.3857 64.3272 32.6919C64.2278 32.9844 64.1174 33.2935 63.987 33.5784C63.8595 33.8769 63.7151 34.1648 63.5677 34.439C63.4092 34.7299 63.2308 34.9965 63.0524 35.263C62.9379 35.416 62.8347 35.5522 62.7173 35.6916C62.6251 35.8112 62.5442 35.9142 62.452 36.0338C62.2397 36.2791 62.0244 36.5108 61.778 36.7347C61.5457 36.9556 61.2993 37.1797 61.0471 37.3764C60.7808 37.576 60.5116 37.7621 60.2424 37.9481C59.9703 38.1205 59.6812 38.2823 59.3892 38.4303C59.0971 38.5784 58.7881 38.7158 58.4902 38.8366C58.1784 38.9604 57.8606 39.0569 57.5569 39.1503C57.3347 39.2121 57.1125 39.2738 56.8874 39.3219C56.5637 39.3911 56.2343 39.433 55.919 39.4717C55.5896 39.5137 55.2572 39.5418 54.9331 39.5397C54.5978 39.5542 54.2707 39.5385 53.9408 39.509L53.9267 39.5121C54.2304 39.4187 54.5341 39.3252 54.832 39.2044C55.1439 39.0806 55.4388 38.9462 55.7308 38.7981C56.0228 38.65 56.3119 38.4883 56.584 38.3159C56.8702 38.1405 57.1365 37.9408 57.3887 37.7441C57.655 37.5445 57.8902 37.3372 58.1366 37.1131C58.366 36.8785 58.5954 36.6438 58.8077 36.3986C59.0202 36.1533 59.2156 35.8973 59.394 35.6308C59.5894 35.3749 59.7508 35.0976 59.9123 34.8204C60.0708 34.5295 60.2153 34.2417 60.3457 33.9568C60.365 33.9099 60.3815 33.8492 60.4008 33.8022C60.4949 33.5537 60.5889 33.3051 60.6688 33.0596C60.7652 32.7535 60.8476 32.4503 60.9129 32.1366C60.9783 31.8228 61.0296 31.5119 61.0638 31.1905C61.101 30.8827 61.1072 30.5673 61.1133 30.2518C61.1025 29.9258 61.0945 29.6134 61.0585 29.3069C61.0195 28.9869 60.9805 28.6668 60.9163 28.3665C60.8697 28.148 60.8089 27.9326 60.7481 27.7171C60.653 27.4091 60.5465 27.1177 60.4401 26.8263C60.3167 26.5243 60.1821 26.2389 60.0335 25.9566C59.8737 25.6909 59.711 25.4116 59.5372 25.1489C59.3634 24.8862 59.1613 24.6295 58.9623 24.3866C58.7492 24.1466 58.5361 23.9066 58.3118 23.6832C58.0734 23.4629 57.838 23.2562 57.5884 23.0525C57.3278 22.8655 57.0672 22.6785 56.7925 22.4945C56.6565 22.4093 56.5037 22.3135 56.3537 22.2313C55.6184 21.8888 54.8609 21.5795 54.112 21.3113C54.0018 21.2777 53.9087 21.2548 53.8015 21.2349C53.2758 21.0474 52.8076 20.9904 52.3423 20.947L52.3422 20.947Z" fill="white"/>
</mask>
<g mask="url(#mask0_3_1188)">
<path d="M47.7018 21.1249C47.3078 21.2092 46.9595 21.3692 46.6452 21.5506C47.4619 21.8615 47.9872 22.3918 48.333 23.046C48.3676 23.1385 48.4102 23.2008 48.4447 23.2934C48.4764 23.3723 48.5079 23.4512 48.5254 23.5332C48.8385 24.7227 48.4907 24.9541 48.3751 25.7212C48.1626 26.7233 48.4853 27.6823 49.147 28.369C49.2096 28.4555 49.2893 28.5527 49.3801 28.6333C48.107 25.2931 50.9649 24.1397 51.283 22.9438C51.1239 21.9927 50.1877 21.536 49.4612 21.2344C48.7803 21.0087 48.2082 21.0167 47.7018 21.1249ZM52.3422 20.947C52.353 21.2731 52.3777 21.1821 52.3988 21.3489C52.408 21.4612 52.4371 21.5978 52.4465 21.71C52.4417 21.8252 52.4369 21.9405 52.418 22.0587C52.4133 22.174 52.3944 22.2922 52.3756 22.4105C52.3426 22.5317 52.3208 22.6363 52.2879 22.7576C52.2573 22.8212 52.2408 22.8818 52.2104 22.9455C52.191 22.9925 52.1716 23.0394 52.1522 23.0864C52.1023 23.1971 52.0523 23.3076 51.9995 23.4046C51.9326 23.5046 51.8827 23.6151 51.7987 23.7045C51.8017 23.7182 51.8017 23.7182 51.8017 23.7182C51.7319 23.8045 51.665 23.9045 51.581 23.9938C51.3323 24.2754 51.0297 24.5114 50.7639 24.7824C50.68 24.8717 50.5931 24.9473 50.5263 25.0474C50.4424 25.1366 50.3725 25.2229 50.3057 25.323C50.2247 25.4259 50.1718 25.5229 50.1079 25.6365C50.055 25.7334 49.991 25.847 49.9551 25.9547C49.9053 26.0653 49.8553 26.1759 49.8195 26.2835C49.7865 26.4048 49.7647 26.5094 49.7318 26.6306C49.713 26.7488 49.6912 26.8534 49.6864 26.9687C49.6704 27.1006 49.6656 27.2158 49.6608 27.3311C49.6584 27.3887 49.673 27.457 49.6707 27.5146C49.6682 27.5723 49.6799 27.6268 49.6776 27.6845C49.7009 27.7937 49.7131 27.9196 49.7365 28.0288C49.754 28.1107 49.7715 28.1927 49.8031 28.2716C49.8264 28.3808 49.8638 28.4871 49.9182 28.6039C49.9557 28.7101 50.0071 28.8134 50.0586 28.9166C50.1241 29.0168 50.1756 29.12 50.2412 29.2202C50.2839 29.2825 50.3407 29.3417 50.3806 29.3903L46.8848 28.8668C46.304 28.8338 45.7402 28.8115 45.1652 28.806C44.8551 28.8008 44.5451 28.7957 44.235 28.7906C43.3558 28.8072 42.4713 28.8677 41.5956 28.9692C41.5674 28.9752 41.5504 28.9646 41.5223 28.9706C40.6606 29.069 39.8217 29.2055 38.9776 29.3859C38.3585 29.5183 37.7452 29.6779 37.149 29.8482C36.3024 30.0862 35.4675 30.3789 34.6384 30.6988C34.4333 30.7712 34.231 30.8573 34.0286 30.9434C33.61 31.1186 33.2083 31.3043 32.8208 31.4871C32.6215 31.5869 32.422 31.6866 32.2227 31.7862C32.0291 31.9133 31.8526 32.051 31.6731 32.175C31.533 32.2763 31.3927 32.3777 31.2526 32.479C31.2274 32.4988 31.1992 32.5048 31.1881 32.5214C31.062 32.6197 30.947 32.7014 30.835 32.7968C30.7957 32.8194 30.7705 32.839 30.7453 32.8587C30.6051 32.9601 30.4678 33.0751 30.3558 33.1704C30.2661 33.2324 30.1792 33.3081 30.1036 33.3671C30.0672 33.4034 30.0168 33.4428 29.9916 33.4624C29.8795 33.5577 29.7675 33.6531 29.6695 33.7454C29.5574 33.8408 29.4595 33.9331 29.3756 34.0224C29.2917 34.1117 29.2049 34.1874 29.1351 34.2737C29.1239 34.2904 29.1098 34.2934 29.0987 34.31C29.026 34.3827 28.9421 34.472 28.8722 34.5583C28.8722 34.5583 28.861 34.575 28.85 34.5916C28.7913 34.6613 28.7326 34.7309 28.6739 34.8006C28.6487 34.8202 28.6263 34.8536 28.6012 34.8732C28.5425 34.9429 28.4867 35.0262 28.428 35.0958C28.4198 35.1262 28.3947 35.1458 28.3834 35.1625C28.3166 35.2625 28.2467 35.3488 28.1798 35.4487C28.1657 35.4517 28.1686 35.4655 28.1576 35.4821C28.0877 35.5684 28.0208 35.6683 27.9538 35.7683C27.9427 35.785 27.9456 35.7986 27.9316 35.8016C27.8758 35.8849 27.82 35.9682 27.7672 36.0652C27.745 36.0984 27.7086 36.1348 27.6863 36.1682C27.6334 36.2651 27.5665 36.365 27.4996 36.4651C27.4913 36.4953 27.4662 36.515 27.4579 36.5453C27.3687 36.6786 27.2935 36.8089 27.2043 36.9422C27.1932 36.9589 27.182 36.9755 27.1709 36.9921C26.9954 37.2724 26.8057 37.5556 26.5963 37.8146C26.3897 38.0872 26.1662 38.3491 25.9368 38.5837C25.6963 38.835 25.464 39.056 25.2035 39.283C24.9542 39.4933 24.6879 39.693 24.4047 39.8821C24.1355 40.0681 23.8493 40.2435 23.5602 40.4052C22.9955 40.6544 22.4402 41.0158 21.9283 41.168C21.8158 41.1921 21.695 41.2465 21.5854 41.2842C21.4645 41.3386 21.3578 41.39 21.2511 41.4413C21.1473 41.5064 21.0435 41.5713 20.9397 41.6364C20.8359 41.7014 20.735 41.7801 20.6341 41.8587C20.5503 41.948 20.4494 42.0268 20.3654 42.116C20.2816 42.2053 20.2006 42.3083 20.1337 42.4083C20.0498 42.4976 19.9717 42.6142 19.9048 42.7142C19.8408 42.8278 19.7739 42.9278 19.724 43.0384C19.677 43.1627 19.613 43.2763 19.5801 43.3976C19.5301 43.5082 19.4831 43.6324 19.4502 43.7537C19.4201 43.8886 19.3873 44.0098 19.3713 44.1418C19.3524 44.2601 19.3365 44.3919 19.3205 44.5239C19.3158 44.639 19.3109 44.7543 19.3203 44.8665C19.3232 44.8802 19.312 44.8969 19.315 44.9106C19.3131 45.0395 19.3481 45.2033 19.3515 45.2883C19.3578 45.3868 19.3613 45.4718 19.3817 45.5673C19.3934 45.622 19.408 45.6902 19.4338 45.7418C19.4683 45.8344 19.4999 45.9133 19.5455 45.9892C19.5912 46.0651 19.6368 46.1411 19.6966 46.2139C19.6995 46.2276 19.6995 46.2276 19.6995 46.2276C19.7592 46.3005 19.833 46.3704 19.9067 46.4403C19.9805 46.5102 20.0543 46.5801 20.1422 46.647C20.2271 46.7003 20.329 46.7641 20.4281 46.8143C20.53 46.8782 20.629 46.9284 20.7421 46.9757C21.1411 47.1902 21.2458 47.2677 21.7287 47.393C21.8079 47.4189 21.884 47.4312 21.9772 47.4541C21.9912 47.4511 22.0083 47.4618 22.0223 47.4588C22.0282 47.486 22.0311 47.4997 22.051 47.5241C22.0884 47.6303 22.1399 47.7335 22.1914 47.8367C22.2458 47.9536 22.3114 48.0538 22.374 48.1404C22.4338 48.2132 22.4793 48.2891 22.5391 48.362C22.559 48.3863 22.5789 48.4107 22.5959 48.4213C22.6755 48.5185 22.7522 48.6021 22.8289 48.6856C22.9197 48.7661 23.0105 48.8467 23.1013 48.9272C23.1891 48.9942 23.2939 49.0716 23.3959 49.1355C23.4978 49.1994 23.5968 49.2496 23.7128 49.3105C23.7128 49.3105 23.7298 49.3212 23.7439 49.3181C23.8428 49.3684 23.9419 49.4186 24.038 49.4552C24.151 49.5025 24.2612 49.536 24.3855 49.5666C24.4956 49.6001 24.6198 49.6307 24.7412 49.6476C24.8343 49.6705 24.9386 49.6768 25.043 49.683C25.06 49.6937 25.074 49.6907 25.1051 49.6983C25.1643 49.7 25.2375 49.6985 25.2967 49.7002C25.4121 50.4465 25.5469 51.1459 25.712 51.3676C25.897 51.6136 26.338 50.6484 26.7528 49.5603C26.8698 50.5204 27.0499 51.6384 27.2606 51.9361C27.4883 52.2444 28.1049 50.999 28.5855 49.6683C38.0823 45.297 48.6153 50.0419 51.5914 59.286C51.0934 57.8504 49.047 57.4312 48.2326 57.8194C48.0264 58.92 47.586 60.3705 46.6046 61.4226C46.5104 60.5005 46.2698 59.581 45.8802 58.722C45.8391 60.0443 45.4851 61.3478 44.871 62.5356C43.5548 62.9168 42.0839 62.5744 41.1791 61.7827C41.114 61.7537 41.0825 61.6748 41.0286 61.6293C40.9659 61.5427 40.9033 61.4561 40.8548 61.3666C40.7921 61.28 40.7436 61.1905 40.7091 61.0979C40.6745 61.0053 40.6541 60.9097 40.6308 60.8005C40.6162 60.7322 40.6016 60.6639 40.587 60.5957C40.5807 60.4971 40.5884 60.3955 40.596 60.2939C40.6037 60.1924 40.6114 60.0907 40.6332 59.9861C40.6691 59.8785 40.6909 59.7739 40.7409 59.6633C40.8399 58.9568 40.7261 58.4243 40.2228 58.2035C40.1268 58.1669 40.0336 58.144 39.9263 58.1241C39.8671 58.1224 39.791 58.1102 39.7318 58.1085C39.6866 58.1039 39.6556 58.0963 39.6104 58.0916C39.506 58.0853 39.4018 58.0791 39.3003 58.0865C39.196 58.0803 39.0946 58.0876 38.9961 58.1087C38.8948 58.116 38.7793 58.1265 38.6808 58.1476C38.6105 58.1626 38.543 58.1913 38.4727 58.2063C38.3601 58.2304 38.2646 58.2651 38.1719 58.3134C38.0763 58.3482 37.9808 58.3829 37.8881 58.4312C37.7954 58.4795 37.7028 58.528 37.6131 58.59C37.5234 58.652 37.4477 58.711 37.3579 58.773C37.2822 58.832 37.2096 58.9047 37.1198 58.9667C34.2851 61.7427 37.2797 66.1855 39.8174 67.1138C39.0053 67.4444 38.185 67.8054 37.9838 68.034C37.9725 68.0506 37.9614 68.0673 37.9614 68.0673C38.6423 68.293 39.3397 68.458 40.0563 68.5761C41.0181 68.6704 42.0303 68.7254 42.4757 68.7444L42.4786 68.7581C43.696 68.7406 44.8954 68.5699 46.0767 68.246C52.2191 66.4907 56.343 60.7977 55.9758 54.5368C56.0302 54.6537 56.0817 54.7569 56.1361 54.8738C56.2309 55.1106 56.3426 55.358 56.4262 55.6114C56.4262 55.6114 56.4262 55.6114 56.4292 55.6251C56.4835 55.7419 56.5238 55.8618 56.5613 55.968C56.5672 55.9953 56.5701 56.0089 56.573 56.0226C56.6133 56.1425 56.6536 56.2624 56.6769 56.3717C56.7231 56.5189 56.7693 56.666 56.8014 56.8162C56.816 56.8845 56.8306 56.9528 56.8481 57.0347C56.8627 57.103 56.8942 57.1819 56.9088 57.2501C56.9263 57.332 56.9298 57.4169 56.9473 57.4989C56.9619 57.5672 56.9765 57.6354 56.9881 57.6901C57.0086 57.7857 57.012 57.8706 57.0324 57.9661C57.0441 58.0208 57.0558 58.0754 57.0562 58.1467C57.0766 58.2423 57.083 58.3408 57.1063 58.45C57.101 58.4941 57.1098 58.535 57.1185 58.576C57.1278 58.6882 57.1341 58.7868 57.1434 58.899C57.1522 58.94 57.1609 58.981 57.1556 59.025C57.1706 59.1645 57.1688 59.2934 57.184 59.433L57.1869 59.4466L57.1898 59.4603C57.1879 59.5892 57.1889 59.7318 57.1871 59.8606C57.19 59.8743 57.1929 59.888 57.1958 59.9016C57.1939 60.0305 57.192 60.1594 57.1902 60.2883C57.1931 60.302 57.1848 60.3323 57.1878 60.3459C57.186 60.4749 57.184 60.6038 57.1681 60.7356C57.1711 60.7493 57.174 60.763 57.1769 60.7766C57.1638 60.9222 57.1479 61.0541 57.146 61.183C57.1348 61.1996 57.1378 61.2133 57.1378 61.2133C57.1247 61.3588 57.1117 61.5044 57.0986 61.65C57.0715 61.7985 57.0557 61.9305 57.0285 62.079C57.0014 62.2276 56.9884 62.3732 56.9584 62.508C56.9312 62.6566 56.9013 62.7915 56.8742 62.9401L56.8601 62.9431C56.8301 63.078 56.803 63.2266 56.7589 63.3646C56.7536 63.4085 56.7454 63.4388 56.7371 63.4691C56.7259 63.4858 56.7288 63.4995 56.7178 63.5161C56.1855 65.5002 55.1704 67.3591 53.7447 68.9488C53.6468 69.0412 53.5517 69.1472 53.4567 69.2531C53.4344 69.2865 53.395 69.3091 53.3727 69.3424C53.2888 69.4318 53.205 69.5211 53.107 69.6135L53.1667 69.6863L53.1808 69.6833C53.3719 69.6139 53.5631 69.5445 53.7542 69.4751L53.7683 69.4721C54.1224 69.3393 54.4737 69.1928 54.8248 69.0463C54.9204 69.0117 55.0272 68.9603 55.1198 68.9119C55.1872 68.8832 55.2406 68.8576 55.3081 68.8288C55.4036 68.7941 55.4963 68.7458 55.5919 68.7111C55.6704 68.6658 55.7519 68.634 55.8305 68.5887C57.1674 67.9603 58.4358 67.218 59.6305 66.4059C58.0267 69.8469 55.5406 72.8768 52.3728 75.1958C53.9675 74.7408 55.5301 74.1355 56.9984 73.3648C62.3212 70.5282 66.3 65.8085 68.0909 60.2143C68.1882 63.4917 67.5358 66.7723 66.1826 69.8028C67.3606 68.6372 68.3969 67.3592 69.2914 65.9687C71.7601 62.1001 72.9616 57.6028 72.7342 53.0968C73.6737 55.1519 74.29 57.3475 74.5488 59.5909C81.7684 43.6702 69.4077 31.4061 64.7079 28.4842C64.6879 28.4599 64.671 28.4493 64.6652 28.422C64.6539 28.4386 64.6539 28.4386 64.6568 28.4522C64.6539 28.4386 64.6539 28.4386 64.6369 28.428C64.672 28.5918 64.6929 28.7587 64.7139 28.9255C64.7388 29.2486 64.7608 29.558 64.7687 29.8704C64.7626 30.1859 64.7424 30.5043 64.7222 30.8227C64.6849 31.1305 64.6366 31.4549 64.5712 31.7688C64.503 32.0688 64.4236 32.3857 64.3272 32.6919C64.2278 32.9844 64.1174 33.2935 63.987 33.5784C63.8595 33.8769 63.7151 34.1648 63.5677 34.439C63.4092 34.7299 63.2308 34.9965 63.0524 35.263C62.9379 35.416 62.8347 35.5522 62.7173 35.6916C62.6251 35.8112 62.5442 35.9142 62.452 36.0338C62.2397 36.2791 62.0244 36.5108 61.778 36.7347C61.5457 36.9556 61.2993 37.1797 61.0471 37.3764C60.7808 37.576 60.5116 37.7621 60.2424 37.9481C59.9703 38.1205 59.6812 38.2823 59.3892 38.4303C59.0971 38.5784 58.7881 38.7158 58.4902 38.8366C58.1784 38.9604 57.8606 39.0569 57.5569 39.1503C57.3347 39.2121 57.1125 39.2738 56.8874 39.3219C56.5637 39.3911 56.2343 39.433 55.919 39.4717C55.5896 39.5137 55.2572 39.5418 54.9331 39.5397C54.5978 39.5542 54.2707 39.5385 53.9408 39.509L53.9267 39.5121C54.2304 39.4187 54.5341 39.3252 54.832 39.2044C55.1439 39.0806 55.4388 38.9462 55.7308 38.7981C56.0228 38.65 56.3119 38.4883 56.584 38.3159C56.8702 38.1405 57.1365 37.9408 57.3887 37.7441C57.655 37.5445 57.8902 37.3372 58.1366 37.1131C58.366 36.8785 58.5954 36.6438 58.8077 36.3986C59.0202 36.1533 59.2156 35.8973 59.394 35.6308C59.5894 35.3749 59.7508 35.0976 59.9123 34.8204C60.0708 34.5295 60.2153 34.2417 60.3457 33.9568C60.365 33.9099 60.3815 33.8492 60.4008 33.8022C60.4949 33.5537 60.5889 33.3051 60.6688 33.0596C60.7652 32.7535 60.8476 32.4503 60.9129 32.1366C60.9783 31.8228 61.0296 31.5119 61.0638 31.1905C61.101 30.8827 61.1072 30.5673 61.1133 30.2518C61.1025 29.9258 61.0945 29.6134 61.0585 29.3069C61.0195 28.9869 60.9805 28.6668 60.9163 28.3665C60.8697 28.148 60.8089 27.9326 60.7481 27.7171C60.653 27.4091 60.5465 27.1177 60.4401 26.8263C60.3167 26.5243 60.1821 26.2389 60.0335 25.9566C59.8737 25.6909 59.711 25.4116 59.5372 25.1489C59.3634 24.8862 59.1613 24.6295 58.9623 24.3866C58.7492 24.1466 58.5361 23.9066 58.3118 23.6832C58.0734 23.4629 57.838 23.2562 57.5884 23.0525C57.3278 22.8655 57.0672 22.6785 56.7925 22.4945C56.6565 22.4093 56.5037 22.3135 56.3537 22.2313C55.6184 21.8888 54.8609 21.5795 54.112 21.3113C54.0018 21.2777 53.9087 21.2548 53.8015 21.2349C53.2758 21.0474 52.8076 20.9904 52.3423 20.947L52.3422 20.947Z" stroke="white" stroke-width="3"/>
</g>
</svg>
