<svg width="130" height="112" viewBox="0 0 130 112" fill="none" xmlns="http://www.w3.org/2000/svg">
<path d="M129.631 3.96723L109.128 107.338C109.128 107.338 106.261 114.506 98.3753 111.066L51.0633 74.7927L33.8596 66.4778L4.89909 56.7281C4.89909 56.7281 0.454676 55.1516 0.0242242 51.7106C-0.406228 48.2697 5.04258 46.4062 5.04258 46.4062L120.167 1.24463C120.167 1.24463 129.63 -2.91282 129.63 3.96903" fill="white"/>
<path d="M47.4278 106.175C47.4278 106.175 46.0467 106.046 44.3249 100.597C42.6058 95.1495 33.8595 66.476 33.8595 66.476L103.394 22.3188C103.394 22.3188 107.409 19.8814 107.265 22.3188C107.265 22.3188 107.982 22.7493 105.83 24.7563C103.681 26.7641 51.2077 73.9318 51.2077 73.9318" fill="#D2E5F1"/>
<path d="M69.2041 88.699L50.4911 105.761C50.4911 105.761 49.0276 106.871 47.4278 106.175L51.0113 74.4833" fill="#B5CFE4"/>
</svg>
