<svg xmlns="http://www.w3.org/2000/svg" viewBox="0 0 512 512" style="enable-background:new 0 0 512 512"
     xml:space="preserve"><path d="m274.2 13.2 57.4 41.6c3.9 2.8 8.5 4.7 13.3 5.5l70 11.2c13.2 2.1 23.6 12.5 25.7 25.7l11.2 70c.8 4.8 2.7 9.3 5.5 13.3l41.6 57.4c7.9 10.8 7.9 25.5 0 36.3l-41.7 57.5c-2.8 3.9-4.7 8.4-5.5 13.1l-11.5 69.9c-2.2 13.1-12.4 23.4-25.5 25.5l-69.9 11.5c-4.7.8-9.2 2.7-13.1 5.5l-57.5 41.7c-10.8 7.9-25.5 7.9-36.3 0l-57.5-41.7c-3.9-2.8-8.4-4.7-13.1-5.5l-69.9-11.6C84.3 438 74 427.7 71.9 414.7l-11.6-69.9c-.8-4.7-2.7-9.2-5.5-13.1l-41.7-57.5c-7.9-10.8-7.9-25.5 0-36.3l41.6-57.4c2.8-3.9 4.7-8.4 5.5-13.2l11.3-70C73.7 84 84 73.7 97.2 71.6l70-11.3c4.8-.8 9.3-2.7 13.2-5.5l57.4-41.6c10.9-7.9 25.5-7.9 36.4 0z" style="fill:#3673fc"/>
    <path style="fill:#fff" d="M220.6 358.4 125 262.7l38.2-38.2 57.4 57.4 128.2-128.3 38.2 38.3z"/></svg>