<svg width="150" height="150" fill="none" xmlns="http://www.w3.org/2000/svg">
    <mask id="a" style="mask-type:alpha" maskUnits="userSpaceOnUse" x="2" y="5" width="146" height="140">
        <path d="M105.531 143.771c2.3.86 4.922.804 7.243-.267l30.059-13.878c3.158-1.459 5.167-4.526 5.167-7.891V27.632c0-3.365-2.009-6.432-5.167-7.89l-30.059-13.88c-3.046-1.406-6.611-1.061-9.284.804a8.98 8.98 0 0 0-1.087.891L44.858 57.931 19.793 39.674c-2.333-1.699-5.597-1.56-7.764.332L3.99 47.022c-2.65 2.314-2.654 6.315-.007 8.633l21.738 19.028L3.983 93.712c-2.647 2.317-2.644 6.318.007 8.632l8.04 7.017c2.166 1.891 5.43 2.03 7.763.331l25.065-18.256 57.545 50.373a9.127 9.127 0 0 0 3.128 1.962Zm5.991-100.89L67.859 74.684l43.663 31.802V42.882Z"
              fill="#fff"/>
    </mask>
    <g mask="url(#a)">
        <path d="M142.922 19.763 112.84 5.865c-3.482-1.609-7.644-.93-10.376 1.692L3.984 93.711c-2.648 2.318-2.645 6.319.007 8.633l8.044 7.016c2.169 1.892 5.434 2.031 7.77.332l118.591-86.324c3.978-2.896 9.693-.173 9.693 4.619v-.335c0-3.364-2.009-6.43-5.167-7.89Z"
              fill="#fff"/>
        <path d="m142.922 129.603-30.082 13.898c-3.482 1.608-7.644.93-10.376-1.692L3.984 55.655c-2.648-2.318-2.645-6.32.007-8.633l8.044-7.017c2.169-1.891 5.434-2.03 7.77-.33l118.591 86.323c3.978 2.895 9.693.173 9.693-4.619v.335c0 3.364-2.009 6.43-5.167 7.889Z"
              fill="#fff"/>
        <path d="M112.746 143.512c-3.483 1.607-7.645.928-10.378-1.694 3.367 3.231 9.125.942 9.125-3.627V11.193c0-4.57-5.758-6.858-9.125-3.627 2.733-2.622 6.895-3.302 10.378-1.695l30.077 13.88c3.16 1.457 5.17 4.525 5.17 7.89v94.103c0 3.365-2.01 6.432-5.17 7.89l-30.077 13.878Z"
              fill="#fff"/>
        <path d="M105.531 143.771c2.3.859 4.922.804 7.243-.267l30.059-13.879c3.158-1.458 5.167-4.525 5.167-7.89V27.632c0-3.365-2.009-6.432-5.167-7.89l-30.059-13.88c-3.046-1.406-6.611-1.061-9.284.804a8.983 8.983 0 0 0-1.087.891L44.858 57.93 19.793 39.674c-2.333-1.7-5.597-1.56-7.764.331L3.99 47.023c-2.65 2.314-2.654 6.315-.007 8.633l21.738 19.028L3.983 93.712c-2.647 2.317-2.644 6.318.007 8.632l8.04 7.016c2.166 1.892 5.43 2.031 7.763.332l25.065-18.256 57.545 50.373a9.127 9.127 0 0 0 3.128 1.962Zm5.991-100.89L67.859 74.683l43.663 31.802V42.881Z"
              fill="url(#b)" fill-opacity=".25"/>
    </g>
    <defs>
        <linearGradient id="b" x1="75" y1="5" x2="75" y2="144.366" gradientUnits="userSpaceOnUse">
            <stop stop-color="#fff"/>
            <stop offset="1" stop-color="#fff" stop-opacity="0"/>
        </linearGradient>
    </defs>
</svg>