<svg width="256" height="180" viewBox="0 0 256 180" fill="none" xmlns="http://www.w3.org/2000/svg">
<g clip-path="url(#clip0_11_1451)">
<path fill-rule="evenodd" clip-rule="evenodd" d="M242.038 13.7263C246.013 17.7014 248.878 22.6486 250.346 28.075V28.076C258.801 62.11 256.848 115.862 250.51 151.21C249.042 156.637 246.177 161.584 242.202 165.559C238.227 169.534 233.28 172.399 227.853 173.867C207.988 179.285 128.033 179.285 128.033 179.285C128.033 179.285 48.077 179.285 28.211 173.867C22.7846 172.398 17.8376 169.534 13.8626 165.559C9.88766 161.584 7.02337 156.636 5.555 151.21C-2.95 117.324 -0.618998 63.538 5.39 28.24C6.85822 22.8134 9.72244 17.8661 13.6974 13.8907C17.6724 9.91536 22.6195 7.0507 28.046 5.582C47.912 0.164 127.87 0 127.87 0C127.87 0 207.824 0 227.69 5.418C233.116 6.88661 238.063 9.75112 242.038 13.7263ZM168.749 89.642L102.421 128.06V51.224L168.749 89.642Z" fill="white"/>
</g>
<defs>
<clipPath id="clip0_11_1451">
<rect width="256" height="180" fill="white"/>
</clipPath>
</defs>
</svg>
